<svg xmlns="http://www.w3.org/2000/svg" width="900" height="430" viewBox="0 0 900 430"><defs><marker id="arrow" viewBox="0 0 10 10" refX="8" refY="5" markerWidth="7" markerHeight="7" orient="auto-start-reverse"><path d="M 0 0 L 10 5 L 0 10 z" fill="#111827"/></marker></defs>
<rect width="100%" height="100%" fill="#ffffff"/>
<text x="30.0" y="38.0" font-family="Arial, sans-serif" font-size="22" font-weight="bold" fill="#111827">What linear_ridge actually receives</text>
<text x="30.0" y="70.0" font-family="Arial, sans-serif" font-size="14" font-weight="normal" fill="#111827">Input X is a 8 x 6 raw EEG window; ridge flattens it to 48 scalar features.</text>
<text x="30.0" y="94.0" font-family="Arial, sans-serif" font-size="14" font-weight="normal" fill="#111827">Target Y is the future 8 x 6 EEG window, shifted by horizon=1; ridge predicts all 48 target scalars.</text>
<text x="40.0" y="120.0" font-family="Arial, sans-serif" font-size="13" font-weight="bold" fill="#111827">Input feature matrix X[t, channel]</text>
<rect x="40" y="135" width="20" height="20" rx="2" fill="#dbeafe" stroke="#1d4ed8"/>
<text x="12.0" y="149.0" font-family="Arial, sans-serif" font-size="10" font-weight="normal" fill="#374151">ch0</text>
<rect x="40" y="157" width="20" height="20" rx="2" fill="#dbeafe" stroke="#1d4ed8"/>
<text x="12.0" y="171.0" font-family="Arial, sans-serif" font-size="10" font-weight="normal" fill="#374151">ch1</text>
<rect x="40" y="179" width="20" height="20" rx="2" fill="#dbeafe" stroke="#1d4ed8"/>
<text x="12.0" y="193.0" font-family="Arial, sans-serif" font-size="10" font-weight="normal" fill="#374151">ch2</text>
<rect x="40" y="201" width="20" height="20" rx="2" fill="#dbeafe" stroke="#1d4ed8"/>
<text x="12.0" y="215.0" font-family="Arial, sans-serif" font-size="10" font-weight="normal" fill="#374151">ch3</text>
<rect x="40" y="223" width="20" height="20" rx="2" fill="#dbeafe" stroke="#1d4ed8"/>
<text x="12.0" y="237.0" font-family="Arial, sans-serif" font-size="10" font-weight="normal" fill="#374151">ch4</text>
<rect x="40" y="245" width="20" height="20" rx="2" fill="#dbeafe" stroke="#1d4ed8"/>
<text x="12.0" y="259.0" font-family="Arial, sans-serif" font-size="10" font-weight="normal" fill="#374151">ch5</text>
<text x="43.0" y="283.0" font-family="Arial, sans-serif" font-size="10" font-weight="normal" fill="#374151">t0</text>
<rect x="62" y="135" width="20" height="20" rx="2" fill="#dbeafe" stroke="#1d4ed8"/>
<rect x="62" y="157" width="20" height="20" rx="2" fill="#dbeafe" stroke="#1d4ed8"/>
<rect x="62" y="179" width="20" height="20" rx="2" fill="#dbeafe" stroke="#1d4ed8"/>
<rect x="62" y="201" width="20" height="20" rx="2" fill="#dbeafe" stroke="#1d4ed8"/>
<rect x="62" y="223" width="20" height="20" rx="2" fill="#dbeafe" stroke="#1d4ed8"/>
<rect x="62" y="245" width="20" height="20" rx="2" fill="#dbeafe" stroke="#1d4ed8"/>
<text x="65.0" y="283.0" font-family="Arial, sans-serif" font-size="10" font-weight="normal" fill="#374151">t1</text>
<rect x="84" y="135" width="20" height="20" rx="2" fill="#dbeafe" stroke="#1d4ed8"/>
<rect x="84" y="157" width="20" height="20" rx="2" fill="#dbeafe" stroke="#1d4ed8"/>
<rect x="84" y="179" width="20" height="20" rx="2" fill="#dbeafe" stroke="#1d4ed8"/>
<rect x="84" y="201" width="20" height="20" rx="2" fill="#dbeafe" stroke="#1d4ed8"/>
<rect x="84" y="223" width="20" height="20" rx="2" fill="#dbeafe" stroke="#1d4ed8"/>
<rect x="84" y="245" width="20" height="20" rx="2" fill="#dbeafe" stroke="#1d4ed8"/>
<text x="87.0" y="283.0" font-family="Arial, sans-serif" font-size="10" font-weight="normal" fill="#374151">t2</text>
<rect x="106" y="135" width="20" height="20" rx="2" fill="#dbeafe" stroke="#1d4ed8"/>
<rect x="106" y="157" width="20" height="20" rx="2" fill="#dbeafe" stroke="#1d4ed8"/>
<rect x="106" y="179" width="20" height="20" rx="2" fill="#dbeafe" stroke="#1d4ed8"/>
<rect x="106" y="201" width="20" height="20" rx="2" fill="#dbeafe" stroke="#1d4ed8"/>
<rect x="106" y="223" width="20" height="20" rx="2" fill="#dbeafe" stroke="#1d4ed8"/>
<rect x="106" y="245" width="20" height="20" rx="2" fill="#dbeafe" stroke="#1d4ed8"/>
<text x="109.0" y="283.0" font-family="Arial, sans-serif" font-size="10" font-weight="normal" fill="#374151">t3</text>
<rect x="128" y="135" width="20" height="20" rx="2" fill="#dbeafe" stroke="#1d4ed8"/>
<rect x="128" y="157" width="20" height="20" rx="2" fill="#dbeafe" stroke="#1d4ed8"/>
<rect x="128" y="179" width="20" height="20" rx="2" fill="#dbeafe" stroke="#1d4ed8"/>
<rect x="128" y="201" width="20" height="20" rx="2" fill="#dbeafe" stroke="#1d4ed8"/>
<rect x="128" y="223" width="20" height="20" rx="2" fill="#dbeafe" stroke="#1d4ed8"/>
<rect x="128" y="245" width="20" height="20" rx="2" fill="#dbeafe" stroke="#1d4ed8"/>
<text x="131.0" y="283.0" font-family="Arial, sans-serif" font-size="10" font-weight="normal" fill="#374151">t4</text>
<rect x="150" y="135" width="20" height="20" rx="2" fill="#dbeafe" stroke="#1d4ed8"/>
<rect x="150" y="157" width="20" height="20" rx="2" fill="#dbeafe" stroke="#1d4ed8"/>
<rect x="150" y="179" width="20" height="20" rx="2" fill="#dbeafe" stroke="#1d4ed8"/>
<rect x="150" y="201" width="20" height="20" rx="2" fill="#dbeafe" stroke="#1d4ed8"/>
<rect x="150" y="223" width="20" height="20" rx="2" fill="#dbeafe" stroke="#1d4ed8"/>
<rect x="150" y="245" width="20" height="20" rx="2" fill="#dbeafe" stroke="#1d4ed8"/>
<text x="153.0" y="283.0" font-family="Arial, sans-serif" font-size="10" font-weight="normal" fill="#374151">t5</text>
<rect x="172" y="135" width="20" height="20" rx="2" fill="#dbeafe" stroke="#1d4ed8"/>
<rect x="172" y="157" width="20" height="20" rx="2" fill="#dbeafe" stroke="#1d4ed8"/>
<rect x="172" y="179" width="20" height="20" rx="2" fill="#dbeafe" stroke="#1d4ed8"/>
<rect x="172" y="201" width="20" height="20" rx="2" fill="#dbeafe" stroke="#1d4ed8"/>
<rect x="172" y="223" width="20" height="20" rx="2" fill="#dbeafe" stroke="#1d4ed8"/>
<rect x="172" y="245" width="20" height="20" rx="2" fill="#dbeafe" stroke="#1d4ed8"/>
<text x="175.0" y="283.0" font-family="Arial, sans-serif" font-size="10" font-weight="normal" fill="#374151">t6</text>
<rect x="194" y="135" width="20" height="20" rx="2" fill="#dbeafe" stroke="#1d4ed8"/>
<rect x="194" y="157" width="20" height="20" rx="2" fill="#dbeafe" stroke="#1d4ed8"/>
<rect x="194" y="179" width="20" height="20" rx="2" fill="#dbeafe" stroke="#1d4ed8"/>
<rect x="194" y="201" width="20" height="20" rx="2" fill="#dbeafe" stroke="#1d4ed8"/>
<rect x="194" y="223" width="20" height="20" rx="2" fill="#dbeafe" stroke="#1d4ed8"/>
<rect x="194" y="245" width="20" height="20" rx="2" fill="#dbeafe" stroke="#1d4ed8"/>
<text x="197.0" y="283.0" font-family="Arial, sans-serif" font-size="10" font-weight="normal" fill="#374151">t7</text>
<line x1="355" y1="210" x2="495" y2="210" stroke="#111827" stroke-width="2" marker-end="url(#arrow)"/>
<text x="397.0" y="202.0" font-family="Arial, sans-serif" font-size="12" font-weight="normal" fill="#111827">flatten</text>
<text x="515.0" y="155.0" font-family="Arial, sans-serif" font-size="16" font-weight="bold" fill="#111827">x = [</text>
<rect x="555" y="145" width="16" height="16" rx="2" fill="#dbeafe" stroke="#60a5fa"/>
<rect x="577" y="145" width="16" height="16" rx="2" fill="#dbeafe" stroke="#60a5fa"/>
<rect x="599" y="145" width="16" height="16" rx="2" fill="#dbeafe" stroke="#60a5fa"/>
<rect x="621" y="145" width="16" height="16" rx="2" fill="#dbeafe" stroke="#60a5fa"/>
<rect x="643" y="145" width="16" height="16" rx="2" fill="#dbeafe" stroke="#60a5fa"/>
<rect x="665" y="145" width="16" height="16" rx="2" fill="#dbeafe" stroke="#60a5fa"/>
<rect x="687" y="145" width="16" height="16" rx="2" fill="#dbeafe" stroke="#60a5fa"/>
<rect x="709" y="145" width="16" height="16" rx="2" fill="#dbeafe" stroke="#60a5fa"/>
<rect x="731" y="145" width="16" height="16" rx="2" fill="#dbeafe" stroke="#60a5fa"/>
<rect x="753" y="145" width="16" height="16" rx="2" fill="#dbeafe" stroke="#60a5fa"/>
<rect x="775" y="145" width="16" height="16" rx="2" fill="#dbeafe" stroke="#60a5fa"/>
<rect x="797" y="145" width="16" height="16" rx="2" fill="#dbeafe" stroke="#60a5fa"/>
<rect x="555" y="167" width="16" height="16" rx="2" fill="#dbeafe" stroke="#60a5fa"/>
<rect x="577" y="167" width="16" height="16" rx="2" fill="#dbeafe" stroke="#60a5fa"/>
<rect x="599" y="167" width="16" height="16" rx="2" fill="#dbeafe" stroke="#60a5fa"/>
<rect x="621" y="167" width="16" height="16" rx="2" fill="#dbeafe" stroke="#60a5fa"/>
<rect x="643" y="167" width="16" height="16" rx="2" fill="#dbeafe" stroke="#60a5fa"/>
<rect x="665" y="167" width="16" height="16" rx="2" fill="#dbeafe" stroke="#60a5fa"/>
<rect x="687" y="167" width="16" height="16" rx="2" fill="#dbeafe" stroke="#60a5fa"/>
<rect x="709" y="167" width="16" height="16" rx="2" fill="#dbeafe" stroke="#60a5fa"/>
<rect x="731" y="167" width="16" height="16" rx="2" fill="#dbeafe" stroke="#60a5fa"/>
<rect x="753" y="167" width="16" height="16" rx="2" fill="#dbeafe" stroke="#60a5fa"/>
<rect x="775" y="167" width="16" height="16" rx="2" fill="#dbeafe" stroke="#60a5fa"/>
<rect x="797" y="167" width="16" height="16" rx="2" fill="#dbeafe" stroke="#60a5fa"/>
<rect x="555" y="189" width="16" height="16" rx="2" fill="#dbeafe" stroke="#60a5fa"/>
<rect x="577" y="189" width="16" height="16" rx="2" fill="#dbeafe" stroke="#60a5fa"/>
<rect x="599" y="189" width="16" height="16" rx="2" fill="#dbeafe" stroke="#60a5fa"/>
<rect x="621" y="189" width="16" height="16" rx="2" fill="#dbeafe" stroke="#60a5fa"/>
<rect x="643" y="189" width="16" height="16" rx="2" fill="#dbeafe" stroke="#60a5fa"/>
<rect x="665" y="189" width="16" height="16" rx="2" fill="#dbeafe" stroke="#60a5fa"/>
<rect x="687" y="189" width="16" height="16" rx="2" fill="#dbeafe" stroke="#60a5fa"/>
<rect x="709" y="189" width="16" height="16" rx="2" fill="#dbeafe" stroke="#60a5fa"/>
<rect x="731" y="189" width="16" height="16" rx="2" fill="#dbeafe" stroke="#60a5fa"/>
<rect x="753" y="189" width="16" height="16" rx="2" fill="#dbeafe" stroke="#60a5fa"/>
<rect x="775" y="189" width="16" height="16" rx="2" fill="#dbeafe" stroke="#60a5fa"/>
<rect x="797" y="189" width="16" height="16" rx="2" fill="#dbeafe" stroke="#60a5fa"/>
<rect x="555" y="211" width="16" height="16" rx="2" fill="#dbeafe" stroke="#60a5fa"/>
<rect x="577" y="211" width="16" height="16" rx="2" fill="#dbeafe" stroke="#60a5fa"/>
<rect x="599" y="211" width="16" height="16" rx="2" fill="#dbeafe" stroke="#60a5fa"/>
<rect x="621" y="211" width="16" height="16" rx="2" fill="#dbeafe" stroke="#60a5fa"/>
<rect x="643" y="211" width="16" height="16" rx="2" fill="#dbeafe" stroke="#60a5fa"/>
<rect x="665" y="211" width="16" height="16" rx="2" fill="#dbeafe" stroke="#60a5fa"/>
<rect x="687" y="211" width="16" height="16" rx="2" fill="#dbeafe" stroke="#60a5fa"/>
<rect x="709" y="211" width="16" height="16" rx="2" fill="#dbeafe" stroke="#60a5fa"/>
<rect x="731" y="211" width="16" height="16" rx="2" fill="#dbeafe" stroke="#60a5fa"/>
<rect x="753" y="211" width="16" height="16" rx="2" fill="#dbeafe" stroke="#60a5fa"/>
<rect x="775" y="211" width="16" height="16" rx="2" fill="#dbeafe" stroke="#60a5fa"/>
<rect x="797" y="211" width="16" height="16" rx="2" fill="#dbeafe" stroke="#60a5fa"/>
<text x="820.0" y="155.0" font-family="Arial, sans-serif" font-size="16" font-weight="bold" fill="#111827">]</text>
<line x1="640" y1="240" x2="640" y2="292" stroke="#111827" stroke-width="2" marker-end="url(#arrow)"/>
<text x="612.0" y="258.0" font-family="Arial, sans-serif" font-size="12" font-weight="normal" fill="#111827">ridge coefficients</text>
<text x="500.0" y="305.0" font-family="Arial, sans-serif" font-size="13" font-weight="bold" fill="#111827">Predicted future Y[t+h, channel]</text>
<rect x="500" y="320" width="20" height="20" rx="2" fill="#ffedd5" stroke="#c2410c"/>
<text x="472.0" y="334.0" font-family="Arial, sans-serif" font-size="10" font-weight="normal" fill="#374151">ch0</text>
<rect x="500" y="342" width="20" height="20" rx="2" fill="#ffedd5" stroke="#c2410c"/>
<text x="472.0" y="356.0" font-family="Arial, sans-serif" font-size="10" font-weight="normal" fill="#374151">ch1</text>
<rect x="500" y="364" width="20" height="20" rx="2" fill="#ffedd5" stroke="#c2410c"/>
<text x="472.0" y="378.0" font-family="Arial, sans-serif" font-size="10" font-weight="normal" fill="#374151">ch2</text>
<rect x="500" y="386" width="20" height="20" rx="2" fill="#ffedd5" stroke="#c2410c"/>
<text x="472.0" y="400.0" font-family="Arial, sans-serif" font-size="10" font-weight="normal" fill="#374151">ch3</text>
<rect x="500" y="408" width="20" height="20" rx="2" fill="#ffedd5" stroke="#c2410c"/>
<text x="472.0" y="422.0" font-family="Arial, sans-serif" font-size="10" font-weight="normal" fill="#374151">ch4</text>
<rect x="500" y="430" width="20" height="20" rx="2" fill="#ffedd5" stroke="#c2410c"/>
<text x="472.0" y="444.0" font-family="Arial, sans-serif" font-size="10" font-weight="normal" fill="#374151">ch5</text>
<text x="503.0" y="468.0" font-family="Arial, sans-serif" font-size="10" font-weight="normal" fill="#374151">t0</text>
<rect x="522" y="320" width="20" height="20" rx="2" fill="#ffedd5" stroke="#c2410c"/>
<rect x="522" y="342" width="20" height="20" rx="2" fill="#ffedd5" stroke="#c2410c"/>
<rect x="522" y="364" width="20" height="20" rx="2" fill="#ffedd5" stroke="#c2410c"/>
<rect x="522" y="386" width="20" height="20" rx="2" fill="#ffedd5" stroke="#c2410c"/>
<rect x="522" y="408" width="20" height="20" rx="2" fill="#ffedd5" stroke="#c2410c"/>
<rect x="522" y="430" width="20" height="20" rx="2" fill="#ffedd5" stroke="#c2410c"/>
<text x="525.0" y="468.0" font-family="Arial, sans-serif" font-size="10" font-weight="normal" fill="#374151">t1</text>
<rect x="544" y="320" width="20" height="20" rx="2" fill="#ffedd5" stroke="#c2410c"/>
<rect x="544" y="342" width="20" height="20" rx="2" fill="#ffedd5" stroke="#c2410c"/>
<rect x="544" y="364" width="20" height="20" rx="2" fill="#ffedd5" stroke="#c2410c"/>
<rect x="544" y="386" width="20" height="20" rx="2" fill="#ffedd5" stroke="#c2410c"/>
<rect x="544" y="408" width="20" height="20" rx="2" fill="#ffedd5" stroke="#c2410c"/>
<rect x="544" y="430" width="20" height="20" rx="2" fill="#ffedd5" stroke="#c2410c"/>
<text x="547.0" y="468.0" font-family="Arial, sans-serif" font-size="10" font-weight="normal" fill="#374151">t2</text>
<rect x="566" y="320" width="20" height="20" rx="2" fill="#ffedd5" stroke="#c2410c"/>
<rect x="566" y="342" width="20" height="20" rx="2" fill="#ffedd5" stroke="#c2410c"/>
<rect x="566" y="364" width="20" height="20" rx="2" fill="#ffedd5" stroke="#c2410c"/>
<rect x="566" y="386" width="20" height="20" rx="2" fill="#ffedd5" stroke="#c2410c"/>
<rect x="566" y="408" width="20" height="20" rx="2" fill="#ffedd5" stroke="#c2410c"/>
<rect x="566" y="430" width="20" height="20" rx="2" fill="#ffedd5" stroke="#c2410c"/>
<text x="569.0" y="468.0" font-family="Arial, sans-serif" font-size="10" font-weight="normal" fill="#374151">t3</text>
<rect x="588" y="320" width="20" height="20" rx="2" fill="#ffedd5" stroke="#c2410c"/>
<rect x="588" y="342" width="20" height="20" rx="2" fill="#ffedd5" stroke="#c2410c"/>
<rect x="588" y="364" width="20" height="20" rx="2" fill="#ffedd5" stroke="#c2410c"/>
<rect x="588" y="386" width="20" height="20" rx="2" fill="#ffedd5" stroke="#c2410c"/>
<rect x="588" y="408" width="20" height="20" rx="2" fill="#ffedd5" stroke="#c2410c"/>
<rect x="588" y="430" width="20" height="20" rx="2" fill="#ffedd5" stroke="#c2410c"/>
<text x="591.0" y="468.0" font-family="Arial, sans-serif" font-size="10" font-weight="normal" fill="#374151">t4</text>
<rect x="610" y="320" width="20" height="20" rx="2" fill="#ffedd5" stroke="#c2410c"/>
<rect x="610" y="342" width="20" height="20" rx="2" fill="#ffedd5" stroke="#c2410c"/>
<rect x="610" y="364" width="20" height="20" rx="2" fill="#ffedd5" stroke="#c2410c"/>
<rect x="610" y="386" width="20" height="20" rx="2" fill="#ffedd5" stroke="#c2410c"/>
<rect x="610" y="408" width="20" height="20" rx="2" fill="#ffedd5" stroke="#c2410c"/>
<rect x="610" y="430" width="20" height="20" rx="2" fill="#ffedd5" stroke="#c2410c"/>
<text x="613.0" y="468.0" font-family="Arial, sans-serif" font-size="10" font-weight="normal" fill="#374151">t5</text>
<rect x="632" y="320" width="20" height="20" rx="2" fill="#ffedd5" stroke="#c2410c"/>
<rect x="632" y="342" width="20" height="20" rx="2" fill="#ffedd5" stroke="#c2410c"/>
<rect x="632" y="364" width="20" height="20" rx="2" fill="#ffedd5" stroke="#c2410c"/>
<rect x="632" y="386" width="20" height="20" rx="2" fill="#ffedd5" stroke="#c2410c"/>
<rect x="632" y="408" width="20" height="20" rx="2" fill="#ffedd5" stroke="#c2410c"/>
<rect x="632" y="430" width="20" height="20" rx="2" fill="#ffedd5" stroke="#c2410c"/>
<text x="635.0" y="468.0" font-family="Arial, sans-serif" font-size="10" font-weight="normal" fill="#374151">t6</text>
<rect x="654" y="320" width="20" height="20" rx="2" fill="#ffedd5" stroke="#c2410c"/>
<rect x="654" y="342" width="20" height="20" rx="2" fill="#ffedd5" stroke="#c2410c"/>
<rect x="654" y="364" width="20" height="20" rx="2" fill="#ffedd5" stroke="#c2410c"/>
<rect x="654" y="386" width="20" height="20" rx="2" fill="#ffedd5" stroke="#c2410c"/>
<rect x="654" y="408" width="20" height="20" rx="2" fill="#ffedd5" stroke="#c2410c"/>
<rect x="654" y="430" width="20" height="20" rx="2" fill="#ffedd5" stroke="#c2410c"/>
<text x="657.0" y="468.0" font-family="Arial, sans-serif" font-size="10" font-weight="normal" fill="#374151">t7</text>
<text x="40.0" y="385.0" font-family="Arial, sans-serif" font-size="14" font-weight="normal" fill="#7c2d12">Sanity-check interpretation: short horizon + overlapping windows makes much of Y a shifted copy of X.</text>
</svg>