<svg xmlns="http://www.w3.org/2000/svg" width="900" height="460" viewBox="0 0 900 460"><defs><marker id="arrow" viewBox="0 0 10 10" refX="8" refY="5" markerWidth="7" markerHeight="7" orient="auto-start-reverse"><path d="M 0 0 L 10 5 L 0 10 z" fill="#111827"/></marker></defs>
<rect width="100%" height="100%" fill="#ffffff"/>
<text x="30.0" y="34.0" font-family="Arial, sans-serif" font-size="22" font-weight="bold" fill="#111827">Example prediction overlay</text>
<line x1="75" y1="368" x2="875" y2="368" stroke="#111827"/>
<line x1="75" y1="55" x2="75" y2="368" stroke="#111827"/>
<text x="370.0" y="436.0" font-family="Arial, sans-serif" font-size="13" font-weight="normal" fill="#374151">seconds from input-window start</text>
<text x="12.0" y="215.0" font-family="Arial, sans-serif" font-size="13" font-weight="normal" fill="#374151">EEG amplitude (benchmark units)</text>
<line x1="75.0" y1="368" x2="75.0" y2="373" stroke="#374151"/>
<text x="59.0" y="390.0" font-family="Arial, sans-serif" font-size="11" font-weight="normal" fill="#374151">0.000</text>
<line x1="275.0" y1="368" x2="275.0" y2="373" stroke="#374151"/>
<text x="259.0" y="390.0" font-family="Arial, sans-serif" font-size="11" font-weight="normal" fill="#374151">0.016</text>
<line x1="475.0" y1="368" x2="475.0" y2="373" stroke="#374151"/>
<text x="459.0" y="390.0" font-family="Arial, sans-serif" font-size="11" font-weight="normal" fill="#374151">0.031</text>
<line x1="675.0" y1="368" x2="675.0" y2="373" stroke="#374151"/>
<text x="659.0" y="390.0" font-family="Arial, sans-serif" font-size="11" font-weight="normal" fill="#374151">0.047</text>
<line x1="875.0" y1="368" x2="875.0" y2="373" stroke="#374151"/>
<text x="859.0" y="390.0" font-family="Arial, sans-serif" font-size="11" font-weight="normal" fill="#374151">0.062</text>
<line x1="70" y1="368.0" x2="75" y2="368.0" stroke="#374151"/>
<text x="8.0" y="372.0" font-family="Arial, sans-serif" font-size="11" font-weight="normal" fill="#374151">-1.81</text>
<line x1="70" y1="289.8" x2="75" y2="289.8" stroke="#374151"/>
<text x="8.0" y="293.8" font-family="Arial, sans-serif" font-size="11" font-weight="normal" fill="#374151">-1.33</text>
<line x1="70" y1="211.5" x2="75" y2="211.5" stroke="#374151"/>
<text x="8.0" y="215.5" font-family="Arial, sans-serif" font-size="11" font-weight="normal" fill="#374151">-0.86</text>
<line x1="70" y1="133.2" x2="75" y2="133.2" stroke="#374151"/>
<text x="8.0" y="137.2" font-family="Arial, sans-serif" font-size="11" font-weight="normal" fill="#374151">-0.38</text>
<line x1="70" y1="55.0" x2="75" y2="55.0" stroke="#374151"/>
<text x="8.0" y="59.0" font-family="Arial, sans-serif" font-size="11" font-weight="normal" fill="#374151">0.09</text>
<line x1="655" y1="54" x2="677" y2="54" stroke="#94a3b8" stroke-width="2.4"/>
<text x="683.0" y="58.0" font-family="Arial, sans-serif" font-size="12" font-weight="normal" fill="#111827">input ch0</text>
<line x1="655" y1="72" x2="677" y2="72" stroke="#111827" stroke-width="2.4"/>
<text x="683.0" y="76.0" font-family="Arial, sans-serif" font-size="12" font-weight="normal" fill="#111827">target ch0</text>
<line x1="655" y1="90" x2="677" y2="90" stroke="#2563eb" stroke-width="2.4"/>
<text x="683.0" y="94.0" font-family="Arial, sans-serif" font-size="12" font-weight="normal" fill="#111827">persistence</text>
<line x1="655" y1="108" x2="677" y2="108" stroke="#16a34a" stroke-width="2.4"/>
<text x="683.0" y="112.0" font-family="Arial, sans-serif" font-size="12" font-weight="normal" fill="#111827">linear_ridge</text>
<line x1="655" y1="126" x2="677" y2="126" stroke="#9333ea" stroke-width="2.4"/>
<text x="683.0" y="130.0" font-family="Arial, sans-serif" font-size="12" font-weight="normal" fill="#111827">autoregressive_ridge</text>
<line x1="655" y1="144" x2="677" y2="144" stroke="#dc2626" stroke-width="2.4"/>
<text x="683.0" y="148.0" font-family="Arial, sans-serif" font-size="12" font-weight="normal" fill="#111827">tiny_ssm</text>
<polyline fill="none" stroke="#94a3b8" stroke-width="2.0" points="75.0,219.3 175.0,219.8 275.0,331.2 375.0,337.7 475.0,223.2 575.0,269.0 675.0,289.6 775.0,260.1"/>
<polyline fill="none" stroke="#111827" stroke-width="2.0" points="175.0,219.8 275.0,331.2 375.0,337.7 475.0,223.2 575.0,269.0 675.0,289.6 775.0,260.1 875.0,235.9"/>
<polyline fill="none" stroke="#2563eb" stroke-width="2.0" points="175.0,219.3 275.0,219.8 375.0,331.2 475.0,337.7 575.0,223.2 675.0,269.0 775.0,289.6 875.0,260.1"/>
<polyline fill="none" stroke="#16a34a" stroke-width="2.0" points="175.0,194.1 275.0,204.3 375.0,290.0 475.0,294.7 575.0,213.8 675.0,243.5 775.0,251.7 875.0,231.2"/>
<polyline fill="none" stroke="#9333ea" stroke-width="2.0" points="175.0,85.3 275.0,180.7 375.0,201.4 475.0,272.5 575.0,272.9 675.0,208.5 775.0,226.6 875.0,229.6"/>
<polyline fill="none" stroke="#dc2626" stroke-width="2.0" points="175.0,126.7 275.0,149.5 375.0,171.9 475.0,181.9 575.0,184.3 675.0,189.2 775.0,188.3 875.0,183.9"/>
<text x="75.0" y="402.0" font-family="Arial, sans-serif" font-size="13" font-weight="normal" fill="#7c2d12">Overlay is one held-out test window, channel 0.</text>
<text x="75.0" y="420.0" font-family="Arial, sans-serif" font-size="13" font-weight="normal" fill="#7c2d12">If ridge tracks the target here, it may be using smooth short-horizon autocorrelation, not deep structure.</text>
</svg>