<?xml version="1.0" encoding="utf-8" standalone="no"?>
<!DOCTYPE svg PUBLIC "-//W3C//DTD SVG 1.1//EN"
  "http://www.w3.org/Graphics/SVG/1.1/DTD/svg11.dtd">
<svg xmlns:xlink="http://www.w3.org/1999/xlink" width="518.15952pt" height="302.15952pt" viewBox="0 0 518.15952 302.15952" xmlns="http://www.w3.org/2000/svg" version="1.1">
 <metadata>
  <rdf:RDF xmlns:dc="http://purl.org/dc/elements/1.1/" xmlns:cc="http://creativecommons.org/ns#" xmlns:rdf="http://www.w3.org/1999/02/22-rdf-syntax-ns#">
   <cc:Work>
    <dc:type rdf:resource="http://purl.org/dc/dcmitype/StillImage"/>
    <dc:date>2026-07-08T08:14:05.390904</dc:date>
    <dc:format>image/svg+xml</dc:format>
    <dc:creator>
     <cc:Agent>
      <dc:title>Matplotlib v3.10.8, https://matplotlib.org/</dc:title>
     </cc:Agent>
    </dc:creator>
   </cc:Work>
  </rdf:RDF>
 </metadata>
 <defs>
  <style type="text/css">*{stroke-linejoin: round; stroke-linecap: butt}</style>
 </defs>
 <g id="figure_1">
  <g id="patch_1">
   <path d="M 0 302.15952
L 518.15952 302.15952
L 518.15952 0
L 0 0
z
" style="fill: #ffffff"/>
  </g>
  <g id="axes_1">
   <g id="patch_2">
    <path d="M 101.923125 269.17177
L 515.27952 269.17177
L 515.27952 32.820918
L 101.923125 32.820918
z
" style="fill: #ffffff"/>
   </g>
   <g id="matplotlib.axis_1">
    <g id="xtick_1">
     <g id="line2d_1">
      <path d="M 171.572801 269.17177
L 171.572801 32.820918
" clip-path="url(#p2e494803f7)" style="fill: none; stroke: #e5e7eb; stroke-width: 0.8; stroke-linecap: round"/>
     </g>
     <g id="text_1">
      <text style="font-size: 8.8px; font-family: 'DejaVu Sans'; text-anchor: middle; fill: #262626" x="171.572801" y="284.158395" transform="rotate(-0 171.572801 284.158395)">10</text>
     </g>
    </g>
    <g id="xtick_2">
     <g id="line2d_2">
      <path d="M 245.456153 269.17177
L 245.456153 32.820918
" clip-path="url(#p2e494803f7)" style="fill: none; stroke: #e5e7eb; stroke-width: 0.8; stroke-linecap: round"/>
     </g>
     <g id="text_2">
      <text style="font-size: 8.8px; font-family: 'DejaVu Sans'; text-anchor: middle; fill: #262626" x="245.456153" y="284.158395" transform="rotate(-0 245.456153 284.158395)">20</text>
     </g>
    </g>
    <g id="xtick_3">
     <g id="line2d_3">
      <path d="M 319.339506 269.17177
L 319.339506 32.820918
" clip-path="url(#p2e494803f7)" style="fill: none; stroke: #e5e7eb; stroke-width: 0.8; stroke-linecap: round"/>
     </g>
     <g id="text_3">
      <text style="font-size: 8.8px; font-family: 'DejaVu Sans'; text-anchor: middle; fill: #262626" x="319.339506" y="284.158395" transform="rotate(-0 319.339506 284.158395)">30</text>
     </g>
    </g>
    <g id="xtick_4">
     <g id="line2d_4">
      <path d="M 393.222858 269.17177
L 393.222858 32.820918
" clip-path="url(#p2e494803f7)" style="fill: none; stroke: #e5e7eb; stroke-width: 0.8; stroke-linecap: round"/>
     </g>
     <g id="text_4">
      <text style="font-size: 8.8px; font-family: 'DejaVu Sans'; text-anchor: middle; fill: #262626" x="393.222858" y="284.158395" transform="rotate(-0 393.222858 284.158395)">40</text>
     </g>
    </g>
    <g id="xtick_5">
     <g id="line2d_5">
      <path d="M 467.106211 269.17177
L 467.106211 32.820918
" clip-path="url(#p2e494803f7)" style="fill: none; stroke: #e5e7eb; stroke-width: 0.8; stroke-linecap: round"/>
     </g>
     <g id="text_5">
      <text style="font-size: 8.8px; font-family: 'DejaVu Sans'; text-anchor: middle; fill: #262626" x="467.106211" y="284.158395" transform="rotate(-0 467.106211 284.158395)">50</text>
     </g>
    </g>
    <g id="text_6">
     <text style="font-size: 9.6px; font-family: 'DejaVu Sans'; text-anchor: middle; fill: #262626" x="308.601323" y="297.28302" transform="rotate(-0 308.601323 297.28302)">MSE, lower is better</text>
    </g>
   </g>
   <g id="matplotlib.axis_2">
    <g id="ytick_1">
     <g id="text_7">
      <text style="font-size: 8.8px; font-family: 'DejaVu Sans'; text-anchor: end; fill: #262626" x="93.623125" y="47.981773" transform="rotate(-0 93.623125 47.981773)">linear ridge</text>
     </g>
    </g>
    <g id="ytick_2">
     <g id="text_8">
      <text style="font-size: 8.8px; font-family: 'DejaVu Sans'; text-anchor: end; fill: #262626" x="93.623125" y="71.616858" transform="rotate(-0 93.623125 71.616858)">autoregressive ridge</text>
     </g>
    </g>
    <g id="ytick_3">
     <g id="text_9">
      <text style="font-size: 8.8px; font-family: 'DejaVu Sans'; text-anchor: end; fill: #262626" x="93.623125" y="95.251943" transform="rotate(-0 93.623125 95.251943)">mlp</text>
     </g>
    </g>
    <g id="ytick_4">
     <g id="text_10">
      <text style="font-size: 8.8px; font-family: 'DejaVu Sans'; text-anchor: end; fill: #262626" x="93.623125" y="118.887028" transform="rotate(-0 93.623125 118.887028)">Kahlus v1 recovered</text>
     </g>
    </g>
    <g id="ytick_5">
     <g id="text_11">
      <text style="font-size: 8.8px; font-family: 'DejaVu Sans'; text-anchor: end; fill: #262626" x="93.623125" y="142.522114" transform="rotate(-0 93.623125 142.522114)">tcn</text>
     </g>
    </g>
    <g id="ytick_6">
     <g id="text_12">
      <text style="font-size: 8.8px; font-family: 'DejaVu Sans'; text-anchor: end; fill: #262626" x="93.623125" y="166.157199" transform="rotate(-0 93.623125 166.157199)">persistence</text>
     </g>
    </g>
    <g id="ytick_7">
     <g id="text_13">
      <text style="font-size: 8.8px; font-family: 'DejaVu Sans'; text-anchor: end; fill: #262626" x="93.623125" y="189.792284" transform="rotate(-0 93.623125 189.792284)">transformer</text>
     </g>
    </g>
    <g id="ytick_8">
     <g id="text_14">
      <text style="font-size: 8.8px; font-family: 'DejaVu Sans'; text-anchor: end; fill: #262626" x="93.623125" y="213.427369" transform="rotate(-0 93.623125 213.427369)">neurotwin</text>
     </g>
    </g>
    <g id="ytick_9">
     <g id="text_15">
      <text style="font-size: 8.8px; font-family: 'DejaVu Sans'; text-anchor: end; fill: #262626" x="93.623125" y="237.062455" transform="rotate(-0 93.623125 237.062455)">ssm fallback</text>
     </g>
    </g>
    <g id="ytick_10">
     <g id="text_16">
      <text style="font-size: 8.8px; font-family: 'DejaVu Sans'; text-anchor: end; fill: #262626" x="93.623125" y="260.69754" transform="rotate(-0 93.623125 260.69754)">train mean</text>
     </g>
    </g>
   </g>
   <g id="line2d_6">
    <defs>
     <path id="mc2f9e4cc72" d="M -0 2.687006
L 2.687006 0
L 0 -2.687006
L -2.687006 -0
z
" style="stroke: #111827; stroke-width: 1.62; stroke-linejoin: miter"/>
    </defs>
    <g clip-path="url(#p2e494803f7)">
     <use xlink:href="#mc2f9e4cc72" x="155.14342" y="44.63846" style="fill: #111827; stroke: #111827; stroke-width: 1.62; stroke-linejoin: miter"/>
     <use xlink:href="#mc2f9e4cc72" x="233.618103" y="68.273545" style="fill: #111827; stroke: #111827; stroke-width: 1.62; stroke-linejoin: miter"/>
     <use xlink:href="#mc2f9e4cc72" x="290.162194" y="91.908631" style="fill: #111827; stroke: #111827; stroke-width: 1.62; stroke-linejoin: miter"/>
     <use xlink:href="#mc2f9e4cc72" x="308.601323" y="115.543716" style="fill: #111827; stroke: #111827; stroke-width: 1.62; stroke-linejoin: miter"/>
     <use xlink:href="#mc2f9e4cc72" x="317.185816" y="139.178801" style="fill: #111827; stroke: #111827; stroke-width: 1.62; stroke-linejoin: miter"/>
     <use xlink:href="#mc2f9e4cc72" x="326.047863" y="162.813886" style="fill: #111827; stroke: #111827; stroke-width: 1.62; stroke-linejoin: miter"/>
     <use xlink:href="#mc2f9e4cc72" x="410.803415" y="186.448972" style="fill: #111827; stroke: #111827; stroke-width: 1.62; stroke-linejoin: miter"/>
     <use xlink:href="#mc2f9e4cc72" x="430.425428" y="210.084057" style="fill: #111827; stroke: #111827; stroke-width: 1.62; stroke-linejoin: miter"/>
     <use xlink:href="#mc2f9e4cc72" x="442.939524" y="233.719142" style="fill: #111827; stroke: #111827; stroke-width: 1.62; stroke-linejoin: miter"/>
     <use xlink:href="#mc2f9e4cc72" x="493.818561" y="257.354227" style="fill: #111827; stroke: #111827; stroke-width: 1.62; stroke-linejoin: miter"/>
    </g>
   </g>
   <g id="patch_3">
    <path d="M 101.923125 269.17177
L 101.923125 32.820918
" style="fill: none; stroke: #cccccc; stroke-linejoin: miter; stroke-linecap: square"/>
   </g>
   <g id="patch_4">
    <path d="M 515.27952 269.17177
L 515.27952 32.820918
" style="fill: none; stroke: #cccccc; stroke-linejoin: miter; stroke-linecap: square"/>
   </g>
   <g id="patch_5">
    <path d="M 101.923125 269.17177
L 515.27952 269.17177
" style="fill: none; stroke: #cccccc; stroke-linejoin: miter; stroke-linecap: square"/>
   </g>
   <g id="patch_6">
    <path d="M 101.923125 32.820918
L 515.27952 32.820918
" style="fill: none; stroke: #cccccc; stroke-linejoin: miter; stroke-linecap: square"/>
   </g>
   <g id="PathCollection_1">
    <defs>
     <path id="C0_0_341938e640" d="M 0 2.2
C 0.583447 2.2 1.143076 1.968194 1.555635 1.555635
C 1.968194 1.143076 2.2 0.583447 2.2 -0
C 2.2 -0.583447 1.968194 -1.143076 1.555635 -1.555635
C 1.143076 -1.968194 0.583447 -2.2 0 -2.2
C -0.583447 -2.2 -1.143076 -1.968194 -1.555635 -1.555635
C -1.968194 -1.143076 -2.2 -0.583447 -2.2 0
C -2.2 0.583447 -1.968194 1.143076 -1.555635 1.555635
C -1.143076 1.968194 -0.583447 2.2 0 2.2
z
"/>
    </defs>
    <g clip-path="url(#p2e494803f7)">
     <use xlink:href="#C0_0_341938e640" x="154.914125" y="48.438096" style="fill: #0173b2; fill-opacity: 0.82; stroke: #ffffff; stroke-opacity: 0.82; stroke-width: 0.35"/>
    </g>
    <g clip-path="url(#p2e494803f7)">
     <use xlink:href="#C0_0_341938e640" x="155.372714" y="42.111539" style="fill: #de8f05; fill-opacity: 0.82; stroke: #ffffff; stroke-opacity: 0.82; stroke-width: 0.35"/>
    </g>
   </g>
   <g id="PathCollection_2">
    <defs>
     <path id="C1_0_341938e640" d="M 0 2.2
C 0.583447 2.2 1.143076 1.968194 1.555635 1.555635
C 1.968194 1.143076 2.2 0.583447 2.2 -0
C 2.2 -0.583447 1.968194 -1.143076 1.555635 -1.555635
C 1.143076 -1.968194 0.583447 -2.2 0 -2.2
C -0.583447 -2.2 -1.143076 -1.968194 -1.555635 -1.555635
C -1.968194 -1.143076 -2.2 -0.583447 -2.2 0
C -2.2 0.583447 -1.968194 1.143076 -1.555635 1.555635
C -1.143076 1.968194 -0.583447 2.2 0 2.2
z
"/>
    </defs>
    <g clip-path="url(#p2e494803f7)">
     <use xlink:href="#C1_0_341938e640" x="287.666214" y="72.297335" style="fill: #0173b2; fill-opacity: 0.82; stroke: #ffffff; stroke-opacity: 0.82; stroke-width: 0.35"/>
    </g>
    <g clip-path="url(#p2e494803f7)">
     <use xlink:href="#C1_0_341938e640" x="179.569992" y="70.331146" style="fill: #de8f05; fill-opacity: 0.82; stroke: #ffffff; stroke-opacity: 0.82; stroke-width: 0.35"/>
    </g>
   </g>
   <g id="PathCollection_3">
    <defs>
     <path id="C2_0_341938e640" d="M 0 2.2
C 0.583447 2.2 1.143076 1.968194 1.555635 1.555635
C 1.968194 1.143076 2.2 0.583447 2.2 -0
C 2.2 -0.583447 1.968194 -1.143076 1.555635 -1.555635
C 1.143076 -1.968194 0.583447 -2.2 0 -2.2
C -0.583447 -2.2 -1.143076 -1.968194 -1.555635 -1.555635
C -1.968194 -1.143076 -2.2 -0.583447 -2.2 0
C -2.2 0.583447 -1.968194 1.143076 -1.555635 1.555635
C -1.143076 1.968194 -0.583447 2.2 0 2.2
z
"/>
    </defs>
    <g clip-path="url(#p2e494803f7)">
     <use xlink:href="#C2_0_341938e640" x="297.123148" y="94.902563" style="fill: #0173b2; fill-opacity: 0.82; stroke: #ffffff; stroke-opacity: 0.82; stroke-width: 0.35"/>
    </g>
    <g clip-path="url(#p2e494803f7)">
     <use xlink:href="#C2_0_341938e640" x="283.201239" y="90.786386" style="fill: #de8f05; fill-opacity: 0.82; stroke: #ffffff; stroke-opacity: 0.82; stroke-width: 0.35"/>
    </g>
   </g>
   <g id="PathCollection_4">
    <defs>
     <path id="C3_0_341938e640" d="M 0 2.2
C 0.583447 2.2 1.143076 1.968194 1.555635 1.555635
C 1.968194 1.143076 2.2 0.583447 2.2 -0
C 2.2 -0.583447 1.968194 -1.143076 1.555635 -1.555635
C 1.143076 -1.968194 0.583447 -2.2 0 -2.2
C -0.583447 -2.2 -1.143076 -1.968194 -1.555635 -1.555635
C -1.968194 -1.143076 -2.2 -0.583447 -2.2 0
C -2.2 0.583447 -1.968194 1.143076 -1.555635 1.555635
C -1.143076 1.968194 -0.583447 2.2 0 2.2
z
"/>
    </defs>
    <g clip-path="url(#p2e494803f7)">
     <use xlink:href="#C3_0_341938e640" x="120.712052" y="117.338326" style="fill: #0173b2; fill-opacity: 0.82; stroke: #ffffff; stroke-opacity: 0.82; stroke-width: 0.35"/>
    </g>
    <g clip-path="url(#p2e494803f7)">
     <use xlink:href="#C3_0_341938e640" x="496.490593" y="117.609709" style="fill: #de8f05; fill-opacity: 0.82; stroke: #ffffff; stroke-opacity: 0.82; stroke-width: 0.35"/>
    </g>
   </g>
   <g id="PathCollection_5">
    <defs>
     <path id="C4_0_341938e640" d="M 0 2.2
C 0.583447 2.2 1.143076 1.968194 1.555635 1.555635
C 1.968194 1.143076 2.2 0.583447 2.2 -0
C 2.2 -0.583447 1.968194 -1.143076 1.555635 -1.555635
C 1.143076 -1.968194 0.583447 -2.2 0 -2.2
C -0.583447 -2.2 -1.143076 -1.968194 -1.555635 -1.555635
C -1.968194 -1.143076 -2.2 -0.583447 -2.2 0
C -2.2 0.583447 -1.968194 1.143076 -1.555635 1.555635
C -1.143076 1.968194 -0.583447 2.2 0 2.2
z
"/>
    </defs>
    <g clip-path="url(#p2e494803f7)">
     <use xlink:href="#C4_0_341938e640" x="324.113723" y="136.368842" style="fill: #0173b2; fill-opacity: 0.82; stroke: #ffffff; stroke-opacity: 0.82; stroke-width: 0.35"/>
    </g>
    <g clip-path="url(#p2e494803f7)">
     <use xlink:href="#C4_0_341938e640" x="310.257909" y="138.941469" style="fill: #de8f05; fill-opacity: 0.82; stroke: #ffffff; stroke-opacity: 0.82; stroke-width: 0.35"/>
    </g>
   </g>
   <g id="PathCollection_6">
    <defs>
     <path id="C5_0_341938e640" d="M 0 2.2
C 0.583447 2.2 1.143076 1.968194 1.555635 1.555635
C 1.968194 1.143076 2.2 0.583447 2.2 -0
C 2.2 -0.583447 1.968194 -1.143076 1.555635 -1.555635
C 1.143076 -1.968194 0.583447 -2.2 0 -2.2
C -0.583447 -2.2 -1.143076 -1.968194 -1.555635 -1.555635
C -1.968194 -1.143076 -2.2 -0.583447 -2.2 0
C -2.2 0.583447 -1.968194 1.143076 -1.555635 1.555635
C -1.143076 1.968194 -0.583447 2.2 0 2.2
z
"/>
    </defs>
    <g clip-path="url(#p2e494803f7)">
     <use xlink:href="#C5_0_341938e640" x="158.305408" y="163.207004" style="fill: #0173b2; fill-opacity: 0.82; stroke: #ffffff; stroke-opacity: 0.82; stroke-width: 0.35"/>
    </g>
    <g clip-path="url(#p2e494803f7)">
     <use xlink:href="#C5_0_341938e640" x="493.790318" y="161.259512" style="fill: #de8f05; fill-opacity: 0.82; stroke: #ffffff; stroke-opacity: 0.82; stroke-width: 0.35"/>
    </g>
   </g>
   <g id="PathCollection_7">
    <defs>
     <path id="C6_0_341938e640" d="M 0 2.2
C 0.583447 2.2 1.143076 1.968194 1.555635 1.555635
C 1.968194 1.143076 2.2 0.583447 2.2 -0
C 2.2 -0.583447 1.968194 -1.143076 1.555635 -1.555635
C 1.143076 -1.968194 0.583447 -2.2 0 -2.2
C -0.583447 -2.2 -1.143076 -1.968194 -1.555635 -1.555635
C -1.968194 -1.143076 -2.2 -0.583447 -2.2 0
C -2.2 0.583447 -1.968194 1.143076 -1.555635 1.555635
C -1.143076 1.968194 -0.583447 2.2 0 2.2
z
"/>
    </defs>
    <g clip-path="url(#p2e494803f7)">
     <use xlink:href="#C6_0_341938e640" x="414.240078" y="187.977307" style="fill: #0173b2; fill-opacity: 0.82; stroke: #ffffff; stroke-opacity: 0.82; stroke-width: 0.35"/>
    </g>
    <g clip-path="url(#p2e494803f7)">
     <use xlink:href="#C6_0_341938e640" x="407.366752" y="186.980612" style="fill: #de8f05; fill-opacity: 0.82; stroke: #ffffff; stroke-opacity: 0.82; stroke-width: 0.35"/>
    </g>
   </g>
   <g id="PathCollection_8">
    <defs>
     <path id="C7_0_341938e640" d="M 0 2.2
C 0.583447 2.2 1.143076 1.968194 1.555635 1.555635
C 1.968194 1.143076 2.2 0.583447 2.2 -0
C 2.2 -0.583447 1.968194 -1.143076 1.555635 -1.555635
C 1.143076 -1.968194 0.583447 -2.2 0 -2.2
C -0.583447 -2.2 -1.143076 -1.968194 -1.555635 -1.555635
C -1.968194 -1.143076 -2.2 -0.583447 -2.2 0
C -2.2 0.583447 -1.968194 1.143076 -1.555635 1.555635
C -1.143076 1.968194 -0.583447 2.2 0 2.2
z
"/>
    </defs>
    <g clip-path="url(#p2e494803f7)">
     <use xlink:href="#C7_0_341938e640" x="429.464307" y="208.094411" style="fill: #0173b2; fill-opacity: 0.82; stroke: #ffffff; stroke-opacity: 0.82; stroke-width: 0.35"/>
    </g>
    <g clip-path="url(#p2e494803f7)">
     <use xlink:href="#C7_0_341938e640" x="431.38655" y="208.586062" style="fill: #de8f05; fill-opacity: 0.82; stroke: #ffffff; stroke-opacity: 0.82; stroke-width: 0.35"/>
    </g>
   </g>
   <g id="PathCollection_9">
    <defs>
     <path id="C8_0_341938e640" d="M 0 2.2
C 0.583447 2.2 1.143076 1.968194 1.555635 1.555635
C 1.968194 1.143076 2.2 0.583447 2.2 -0
C 2.2 -0.583447 1.968194 -1.143076 1.555635 -1.555635
C 1.143076 -1.968194 0.583447 -2.2 0 -2.2
C -0.583447 -2.2 -1.143076 -1.968194 -1.555635 -1.555635
C -1.968194 -1.143076 -2.2 -0.583447 -2.2 0
C -2.2 0.583447 -1.968194 1.143076 -1.555635 1.555635
C -1.143076 1.968194 -0.583447 2.2 0 2.2
z
"/>
    </defs>
    <g clip-path="url(#p2e494803f7)">
     <use xlink:href="#C8_0_341938e640" x="448.390958" y="230.913801" style="fill: #0173b2; fill-opacity: 0.82; stroke: #ffffff; stroke-opacity: 0.82; stroke-width: 0.35"/>
    </g>
    <g clip-path="url(#p2e494803f7)">
     <use xlink:href="#C8_0_341938e640" x="437.488091" y="234.243456" style="fill: #de8f05; fill-opacity: 0.82; stroke: #ffffff; stroke-opacity: 0.82; stroke-width: 0.35"/>
    </g>
   </g>
   <g id="PathCollection_10">
    <defs>
     <path id="C9_0_341938e640" d="M 0 2.2
C 0.583447 2.2 1.143076 1.968194 1.555635 1.555635
C 1.968194 1.143076 2.2 0.583447 2.2 -0
C 2.2 -0.583447 1.968194 -1.143076 1.555635 -1.555635
C 1.143076 -1.968194 0.583447 -2.2 0 -2.2
C -0.583447 -2.2 -1.143076 -1.968194 -1.555635 -1.555635
C -1.968194 -1.143076 -2.2 -0.583447 -2.2 0
C -2.2 0.583447 -1.968194 1.143076 -1.555635 1.555635
C -1.143076 1.968194 -0.583447 2.2 0 2.2
z
"/>
    </defs>
    <g clip-path="url(#p2e494803f7)">
     <use xlink:href="#C9_0_341938e640" x="493.878722" y="259.211482" style="fill: #0173b2; fill-opacity: 0.82; stroke: #ffffff; stroke-opacity: 0.82; stroke-width: 0.35"/>
    </g>
    <g clip-path="url(#p2e494803f7)">
     <use xlink:href="#C9_0_341938e640" x="493.758399" y="253.283767" style="fill: #de8f05; fill-opacity: 0.82; stroke: #ffffff; stroke-opacity: 0.82; stroke-width: 0.35"/>
    </g>
   </g>
   <g id="line2d_7"/>
   <g id="line2d_8"/>
   <g id="text_17">
    <text style="font-weight: 700; font-size: 9.6px; font-family: 'DejaVu Sans'; text-anchor: start; fill: #262626" x="101.923125" y="26.820918" transform="rotate(-0 101.923125 26.820918)">A. MSE by model, sorted by median</text>
   </g>
   <g id="legend_1">
    <g id="text_18">
     <text style="font-size: 9.6px; font-family: 'DejaVu Sans'; text-anchor: start; fill: #262626" x="452.478708" y="233.42177" transform="rotate(-0 452.478708 233.42177)">task</text>
    </g>
    <g id="line2d_9">
     <defs>
      <path id="m672b60d0ac" d="M 0 2.2
C 0.583447 2.2 1.143076 1.968194 1.555635 1.555635
C 1.968194 1.143076 2.2 0.583447 2.2 0
C 2.2 -0.583447 1.968194 -1.143076 1.555635 -1.555635
C 1.143076 -1.968194 0.583447 -2.2 0 -2.2
C -0.583447 -2.2 -1.143076 -1.968194 -1.555635 -1.555635
C -1.968194 -1.143076 -2.2 -0.583447 -2.2 0
C -2.2 0.583447 -1.968194 1.143076 -1.555635 1.555635
C -1.143076 1.968194 -0.583447 2.2 0 2.2
z
" style="stroke: #ffffff; stroke-opacity: 0.82; stroke-width: 0.35"/>
     </defs>
     <g>
      <use xlink:href="#m672b60d0ac" x="426.604395" y="243.424895" style="fill: #0173b2; fill-opacity: 0.82; stroke: #ffffff; stroke-opacity: 0.82; stroke-width: 0.35"/>
     </g>
    </g>
    <g id="text_19">
     <text style="font-size: 8.8px; font-family: 'DejaVu Sans'; text-anchor: start; fill: #262626" x="442.444395" y="246.504895" transform="rotate(-0 442.444395 246.504895)">future forecast</text>
    </g>
    <g id="line2d_10">
     <defs>
      <path id="m525ffbf11c" d="M 0 2.2
C 0.583447 2.2 1.143076 1.968194 1.555635 1.555635
C 1.968194 1.143076 2.2 0.583447 2.2 0
C 2.2 -0.583447 1.968194 -1.143076 1.555635 -1.555635
C 1.143076 -1.968194 0.583447 -2.2 0 -2.2
C -0.583447 -2.2 -1.143076 -1.968194 -1.555635 -1.555635
C -1.968194 -1.143076 -2.2 -0.583447 -2.2 0
C -2.2 0.583447 -1.968194 1.143076 -1.555635 1.555635
C -1.143076 1.968194 -0.583447 2.2 0 2.2
z
" style="stroke: #ffffff; stroke-opacity: 0.82; stroke-width: 0.35"/>
     </defs>
     <g>
      <use xlink:href="#m525ffbf11c" x="426.604395" y="256.341645" style="fill: #de8f05; fill-opacity: 0.82; stroke: #ffffff; stroke-opacity: 0.82; stroke-width: 0.35"/>
     </g>
    </g>
    <g id="text_20">
     <text style="font-size: 8.8px; font-family: 'DejaVu Sans'; text-anchor: start; fill: #262626" x="442.444395" y="259.421645" transform="rotate(-0 442.444395 259.421645)">masked recon</text>
    </g>
   </g>
  </g>
  <g id="text_21">
   <text style="font-weight: 700; font-size: 11px; font-family: 'DejaVu Sans'; text-anchor: start; fill: #262626" x="10.24776" y="11.238281" transform="rotate(-0 10.24776 11.238281)">EEG v1 recovered Kahlus v1 versus baselines</text>
  </g>
 </g>
 <defs>
  <clipPath id="p2e494803f7">
   <rect x="101.923125" y="32.820918" width="413.356395" height="236.350852"/>
  </clipPath>
 </defs>
</svg>
