<?xml version="1.0" encoding="utf-8" standalone="no"?>
<!DOCTYPE svg PUBLIC "-//W3C//DTD SVG 1.1//EN"
  "http://www.w3.org/Graphics/SVG/1.1/DTD/svg11.dtd">
<svg xmlns:xlink="http://www.w3.org/1999/xlink" width="518.15952pt" height="345.35952pt" viewBox="0 0 518.15952 345.35952" xmlns="http://www.w3.org/2000/svg" version="1.1">
 <metadata>
  <rdf:RDF xmlns:dc="http://purl.org/dc/elements/1.1/" xmlns:cc="http://creativecommons.org/ns#" xmlns:rdf="http://www.w3.org/1999/02/22-rdf-syntax-ns#">
   <cc:Work>
    <dc:type rdf:resource="http://purl.org/dc/dcmitype/StillImage"/>
    <dc:date>2026-07-08T00:24:36.326359</dc:date>
    <dc:format>image/svg+xml</dc:format>
    <dc:creator>
     <cc:Agent>
      <dc:title>Matplotlib v3.10.8, https://matplotlib.org/</dc:title>
     </cc:Agent>
    </dc:creator>
   </cc:Work>
  </rdf:RDF>
 </metadata>
 <defs>
  <style type="text/css">*{stroke-linejoin: round; stroke-linecap: butt}</style>
 </defs>
 <g id="figure_1">
  <g id="patch_1">
   <path d="M 0 345.35952
L 518.15952 345.35952
L 518.15952 0
L 0 0
z
" style="fill: #ffffff"/>
  </g>
  <g id="axes_1">
   <g id="patch_2">
    <path d="M 38.46575 141.69591
L 256.07952 141.69591
L 256.07952 33.126855
L 38.46575 33.126855
z
" style="fill: #ffffff"/>
   </g>
   <g id="line2d_1">
    <path d="M 38.46575 135.507269
L 256.07952 135.507269
" clip-path="url(#p857c3846f0)" style="fill: none; stroke: #9ca3af; stroke-width: 0.8; stroke-linecap: round"/>
   </g>
   <g id="matplotlib.axis_1">
    <g id="xtick_1">
     <g id="text_1">
      <text style="font-size: 8.8px; font-family: 'DejaVu Sans'; fill: #262626" transform="translate(62.750587 176.415145) rotate(-18)">future forecast</text>
     </g>
    </g>
    <g id="xtick_2">
     <g id="text_2">
      <text style="font-size: 8.8px; font-family: 'DejaVu Sans'; fill: #262626" transform="translate(173.058714 175.439579) rotate(-18)">masked recon</text>
     </g>
    </g>
   </g>
   <g id="matplotlib.axis_2">
    <g id="ytick_1">
     <g id="line2d_2">
      <path d="M 38.46575 135.507269
L 256.07952 135.507269
" clip-path="url(#p857c3846f0)" style="fill: none; stroke: #cccccc; stroke-width: 0.8; stroke-linecap: round"/>
     </g>
     <g id="text_3">
      <text style="font-size: 8.8px; font-family: 'DejaVu Sans'; text-anchor: end; fill: #262626" x="30.16575" y="138.850582" transform="rotate(-0 30.16575 138.850582)">0.0</text>
     </g>
    </g>
    <g id="ytick_2">
     <g id="line2d_3">
      <path d="M 38.46575 115.458988
L 256.07952 115.458988
" clip-path="url(#p857c3846f0)" style="fill: none; stroke: #cccccc; stroke-width: 0.8; stroke-linecap: round"/>
     </g>
     <g id="text_4">
      <text style="font-size: 8.8px; font-family: 'DejaVu Sans'; text-anchor: end; fill: #262626" x="30.16575" y="118.8023" transform="rotate(-0 30.16575 118.8023)">0.2</text>
     </g>
    </g>
    <g id="ytick_3">
     <g id="line2d_4">
      <path d="M 38.46575 95.410706
L 256.07952 95.410706
" clip-path="url(#p857c3846f0)" style="fill: none; stroke: #cccccc; stroke-width: 0.8; stroke-linecap: round"/>
     </g>
     <g id="text_5">
      <text style="font-size: 8.8px; font-family: 'DejaVu Sans'; text-anchor: end; fill: #262626" x="30.16575" y="98.754019" transform="rotate(-0 30.16575 98.754019)">0.4</text>
     </g>
    </g>
    <g id="ytick_4">
     <g id="line2d_5">
      <path d="M 38.46575 75.362425
L 256.07952 75.362425
" clip-path="url(#p857c3846f0)" style="fill: none; stroke: #cccccc; stroke-width: 0.8; stroke-linecap: round"/>
     </g>
     <g id="text_6">
      <text style="font-size: 8.8px; font-family: 'DejaVu Sans'; text-anchor: end; fill: #262626" x="30.16575" y="78.705738" transform="rotate(-0 30.16575 78.705738)">0.6</text>
     </g>
    </g>
    <g id="ytick_5">
     <g id="line2d_6">
      <path d="M 38.46575 55.314144
L 256.07952 55.314144
" clip-path="url(#p857c3846f0)" style="fill: none; stroke: #cccccc; stroke-width: 0.8; stroke-linecap: round"/>
     </g>
     <g id="text_7">
      <text style="font-size: 8.8px; font-family: 'DejaVu Sans'; text-anchor: end; fill: #262626" x="30.16575" y="58.657456" transform="rotate(-0 30.16575 58.657456)">0.8</text>
     </g>
    </g>
    <g id="ytick_6">
     <g id="line2d_7">
      <path d="M 38.46575 35.265862
L 256.07952 35.265862
" clip-path="url(#p857c3846f0)" style="fill: none; stroke: #cccccc; stroke-width: 0.8; stroke-linecap: round"/>
     </g>
     <g id="text_8">
      <text style="font-size: 8.8px; font-family: 'DejaVu Sans'; text-anchor: end; fill: #262626" x="30.16575" y="38.609175" transform="rotate(-0 30.16575 38.609175)">1.0</text>
     </g>
    </g>
    <g id="text_9">
     <text style="font-size: 9.6px; font-family: 'DejaVu Sans'; text-anchor: middle; fill: #262626" x="10.1745" y="87.411383" transform="rotate(-90 10.1745 87.411383)">higher is better</text>
    </g>
   </g>
   <g id="line2d_8">
    <defs>
     <path id="mc85e5eab77" d="M 8 0
L -8 -0
" style="stroke: #111827; stroke-width: 1.62"/>
    </defs>
    <g clip-path="url(#p857c3846f0)">
     <use xlink:href="#mc85e5eab77" x="92.869192" y="68.996843" style="fill: #111827; stroke: #111827; stroke-width: 1.62"/>
     <use xlink:href="#mc85e5eab77" x="201.676077" y="93.912099" style="fill: #111827; stroke: #111827; stroke-width: 1.62"/>
    </g>
   </g>
   <g id="patch_3">
    <path d="M 38.46575 141.69591
L 38.46575 33.126855
" style="fill: none; stroke: #cccccc; stroke-linejoin: miter; stroke-linecap: square"/>
   </g>
   <g id="patch_4">
    <path d="M 256.07952 141.69591
L 256.07952 33.126855
" style="fill: none; stroke: #cccccc; stroke-linejoin: miter; stroke-linecap: square"/>
   </g>
   <g id="patch_5">
    <path d="M 38.46575 141.69591
L 256.07952 141.69591
" style="fill: none; stroke: #cccccc; stroke-linejoin: miter; stroke-linecap: square"/>
   </g>
   <g id="patch_6">
    <path d="M 38.46575 33.126855
L 256.07952 33.126855
" style="fill: none; stroke: #cccccc; stroke-linejoin: miter; stroke-linecap: square"/>
   </g>
   <g id="PathCollection_1">
    <defs>
     <path id="C0_0_03cd196b09" d="M 0 2
C 0.530406 2 1.03916 1.789267 1.414214 1.414214
C 1.789267 1.03916 2 0.530406 2 -0
C 2 -0.530406 1.789267 -1.03916 1.414214 -1.414214
C 1.03916 -1.789267 0.530406 -2 0 -2
C -0.530406 -2 -1.03916 -1.789267 -1.414214 -1.414214
C -1.789267 -1.03916 -2 -0.530406 -2 0
C -2 0.530406 -1.789267 1.03916 -1.414214 1.414214
C -1.03916 1.789267 -0.530406 2 0 2
z
"/>
    </defs>
    <g clip-path="url(#p857c3846f0)">
     <use xlink:href="#C0_0_03cd196b09" x="90.741764" y="97.200532" style="fill: #1f77b4; fill-opacity: 0.82; stroke: #ffffff; stroke-opacity: 0.82; stroke-width: 0.35"/>
    </g>
    <g clip-path="url(#p857c3846f0)">
     <use xlink:href="#C0_0_03cd196b09" x="92.935846" y="97.200532" style="fill: #1f77b4; fill-opacity: 0.82; stroke: #ffffff; stroke-opacity: 0.82; stroke-width: 0.35"/>
    </g>
    <g clip-path="url(#p857c3846f0)">
     <use xlink:href="#C0_0_03cd196b09" x="89.467738" y="89.552561" style="fill: #1f77b4; fill-opacity: 0.82; stroke: #ffffff; stroke-opacity: 0.82; stroke-width: 0.35"/>
    </g>
    <g clip-path="url(#p857c3846f0)">
     <use xlink:href="#C0_0_03cd196b09" x="96.03869" y="48.441124" style="fill: #1f77b4; fill-opacity: 0.82; stroke: #ffffff; stroke-opacity: 0.82; stroke-width: 0.35"/>
    </g>
    <g clip-path="url(#p857c3846f0)">
     <use xlink:href="#C0_0_03cd196b09" x="108.481106" y="47.929939" style="fill: #1f77b4; fill-opacity: 0.82; stroke: #ffffff; stroke-opacity: 0.82; stroke-width: 0.35"/>
    </g>
    <g clip-path="url(#p857c3846f0)">
     <use xlink:href="#C0_0_03cd196b09" x="78.773894" y="38.061812" style="fill: #1f77b4; fill-opacity: 0.82; stroke: #ffffff; stroke-opacity: 0.82; stroke-width: 0.35"/>
    </g>
   </g>
   <g id="PathCollection_2">
    <defs>
     <path id="C1_0_03cd196b09" d="M 0 2
C 0.530406 2 1.03916 1.789267 1.414214 1.414214
C 1.789267 1.03916 2 0.530406 2 -0
C 2 -0.530406 1.789267 -1.03916 1.414214 -1.414214
C 1.03916 -1.789267 0.530406 -2 0 -2
C -0.530406 -2 -1.03916 -1.789267 -1.414214 -1.414214
C -1.789267 -1.03916 -2 -0.530406 -2 0
C -2 0.530406 -1.789267 1.03916 -1.414214 1.414214
C -1.03916 1.789267 -0.530406 2 0 2
z
"/>
    </defs>
    <g clip-path="url(#p857c3846f0)">
     <use xlink:href="#C1_0_03cd196b09" x="188.785613" y="98.247734" style="fill: #2ca02c; fill-opacity: 0.82; stroke: #ffffff; stroke-opacity: 0.82; stroke-width: 0.35"/>
    </g>
    <g clip-path="url(#p857c3846f0)">
     <use xlink:href="#C1_0_03cd196b09" x="202.019484" y="98.247734" style="fill: #2ca02c; fill-opacity: 0.82; stroke: #ffffff; stroke-opacity: 0.82; stroke-width: 0.35"/>
    </g>
    <g clip-path="url(#p857c3846f0)">
     <use xlink:href="#C1_0_03cd196b09" x="215.137606" y="89.576464" style="fill: #2ca02c; fill-opacity: 0.82; stroke: #ffffff; stroke-opacity: 0.82; stroke-width: 0.35"/>
    </g>
    <g clip-path="url(#p857c3846f0)">
     <use xlink:href="#C1_0_03cd196b09" x="191.294292" y="49.667743" style="fill: #2ca02c; fill-opacity: 0.82; stroke: #ffffff; stroke-opacity: 0.82; stroke-width: 0.35"/>
    </g>
    <g clip-path="url(#p857c3846f0)">
     <use xlink:href="#C1_0_03cd196b09" x="210.462988" y="48.857161" style="fill: #2ca02c; fill-opacity: 0.82; stroke: #ffffff; stroke-opacity: 0.82; stroke-width: 0.35"/>
    </g>
    <g clip-path="url(#p857c3846f0)">
     <use xlink:href="#C1_0_03cd196b09" x="210.443432" y="136.760953" style="fill: #2ca02c; fill-opacity: 0.82; stroke: #ffffff; stroke-opacity: 0.82; stroke-width: 0.35"/>
    </g>
   </g>
   <g id="text_10">
    <text style="font-weight: 700; font-size: 9.6px; font-family: 'DejaVu Sans'; text-anchor: start; fill: #262626" x="38.46575" y="27.126855" transform="rotate(-0 38.46575 27.126855)">A. Pearson r</text>
   </g>
  </g>
  <g id="axes_2">
   <g id="patch_7">
    <path d="M 297.66575 141.69591
L 515.27952 141.69591
L 515.27952 33.126855
L 297.66575 33.126855
z
" style="fill: #ffffff"/>
   </g>
   <g id="line2d_9">
    <path d="M 297.66575 136.085534
L 515.27952 136.085534
" clip-path="url(#pd1b6fef5c2)" style="fill: none; stroke: #9ca3af; stroke-width: 0.8; stroke-linecap: round"/>
   </g>
   <g id="matplotlib.axis_3">
    <g id="xtick_3">
     <g id="text_11">
      <text style="font-size: 8.8px; font-family: 'DejaVu Sans'; fill: #262626" transform="translate(321.950587 176.415145) rotate(-18)">future forecast</text>
     </g>
    </g>
    <g id="xtick_4">
     <g id="text_12">
      <text style="font-size: 8.8px; font-family: 'DejaVu Sans'; fill: #262626" transform="translate(432.258714 175.439579) rotate(-18)">masked recon</text>
     </g>
    </g>
   </g>
   <g id="matplotlib.axis_4">
    <g id="ytick_7">
     <g id="line2d_10">
      <path d="M 297.66575 136.085534
L 515.27952 136.085534
" clip-path="url(#pd1b6fef5c2)" style="fill: none; stroke: #cccccc; stroke-width: 0.8; stroke-linecap: round"/>
     </g>
     <g id="text_13">
      <text style="font-size: 8.8px; font-family: 'DejaVu Sans'; text-anchor: end; fill: #262626" x="289.36575" y="139.428847" transform="rotate(-0 289.36575 139.428847)">0.0</text>
     </g>
    </g>
    <g id="ytick_8">
     <g id="line2d_11">
      <path d="M 297.66575 115.271375
L 515.27952 115.271375
" clip-path="url(#pd1b6fef5c2)" style="fill: none; stroke: #cccccc; stroke-width: 0.8; stroke-linecap: round"/>
     </g>
     <g id="text_14">
      <text style="font-size: 8.8px; font-family: 'DejaVu Sans'; text-anchor: end; fill: #262626" x="289.36575" y="118.614687" transform="rotate(-0 289.36575 118.614687)">0.2</text>
     </g>
    </g>
    <g id="ytick_9">
     <g id="line2d_12">
      <path d="M 297.66575 94.457216
L 515.27952 94.457216
" clip-path="url(#pd1b6fef5c2)" style="fill: none; stroke: #cccccc; stroke-width: 0.8; stroke-linecap: round"/>
     </g>
     <g id="text_15">
      <text style="font-size: 8.8px; font-family: 'DejaVu Sans'; text-anchor: end; fill: #262626" x="289.36575" y="97.800528" transform="rotate(-0 289.36575 97.800528)">0.4</text>
     </g>
    </g>
    <g id="ytick_10">
     <g id="line2d_13">
      <path d="M 297.66575 73.643057
L 515.27952 73.643057
" clip-path="url(#pd1b6fef5c2)" style="fill: none; stroke: #cccccc; stroke-width: 0.8; stroke-linecap: round"/>
     </g>
     <g id="text_16">
      <text style="font-size: 8.8px; font-family: 'DejaVu Sans'; text-anchor: end; fill: #262626" x="289.36575" y="76.986369" transform="rotate(-0 289.36575 76.986369)">0.6</text>
     </g>
    </g>
    <g id="ytick_11">
     <g id="line2d_14">
      <path d="M 297.66575 52.828897
L 515.27952 52.828897
" clip-path="url(#pd1b6fef5c2)" style="fill: none; stroke: #cccccc; stroke-width: 0.8; stroke-linecap: round"/>
     </g>
     <g id="text_17">
      <text style="font-size: 8.8px; font-family: 'DejaVu Sans'; text-anchor: end; fill: #262626" x="289.36575" y="56.17221" transform="rotate(-0 289.36575 56.17221)">0.8</text>
     </g>
    </g>
    <g id="text_18">
     <text style="font-size: 9.6px; font-family: 'DejaVu Sans'; text-anchor: middle; fill: #262626" x="269.3745" y="87.411383" transform="rotate(-90 269.3745 87.411383)">higher is better</text>
    </g>
   </g>
   <g id="line2d_15">
    <g clip-path="url(#pd1b6fef5c2)">
     <use xlink:href="#mc85e5eab77" x="352.069192" y="86.295862" style="fill: #111827; stroke: #111827; stroke-width: 1.62"/>
     <use xlink:href="#mc85e5eab77" x="460.876078" y="119.980466" style="fill: #111827; stroke: #111827; stroke-width: 1.62"/>
    </g>
   </g>
   <g id="patch_8">
    <path d="M 297.66575 141.69591
L 297.66575 33.126855
" style="fill: none; stroke: #cccccc; stroke-linejoin: miter; stroke-linecap: square"/>
   </g>
   <g id="patch_9">
    <path d="M 515.27952 141.69591
L 515.27952 33.126855
" style="fill: none; stroke: #cccccc; stroke-linejoin: miter; stroke-linecap: square"/>
   </g>
   <g id="patch_10">
    <path d="M 297.66575 141.69591
L 515.27952 141.69591
" style="fill: none; stroke: #cccccc; stroke-linejoin: miter; stroke-linecap: square"/>
   </g>
   <g id="patch_11">
    <path d="M 297.66575 33.126855
L 515.27952 33.126855
" style="fill: none; stroke: #cccccc; stroke-linejoin: miter; stroke-linecap: square"/>
   </g>
   <g id="PathCollection_3">
    <defs>
     <path id="C2_0_03cd196b09" d="M 0 2
C 0.530406 2 1.03916 1.789267 1.414214 1.414214
C 1.789267 1.03916 2 0.530406 2 -0
C 2 -0.530406 1.789267 -1.03916 1.414214 -1.414214
C 1.03916 -1.789267 0.530406 -2 0 -2
C -0.530406 -2 -1.03916 -1.789267 -1.414214 -1.414214
C -1.789267 -1.03916 -2 -0.530406 -2 0
C -2 0.530406 -1.789267 1.03916 -1.414214 1.414214
C -1.03916 1.789267 -0.530406 2 0 2
z
"/>
    </defs>
    <g clip-path="url(#pd1b6fef5c2)">
     <use xlink:href="#C2_0_03cd196b09" x="337.645829" y="121.291772" style="fill: #1f77b4; fill-opacity: 0.82; stroke: #ffffff; stroke-opacity: 0.82; stroke-width: 0.35"/>
    </g>
    <g clip-path="url(#pd1b6fef5c2)">
     <use xlink:href="#C2_0_03cd196b09" x="365.948296" y="121.291772" style="fill: #1f77b4; fill-opacity: 0.82; stroke: #ffffff; stroke-opacity: 0.82; stroke-width: 0.35"/>
    </g>
    <g clip-path="url(#pd1b6fef5c2)">
     <use xlink:href="#C2_0_03cd196b09" x="335.538905" y="114.87858" style="fill: #1f77b4; fill-opacity: 0.82; stroke: #ffffff; stroke-opacity: 0.82; stroke-width: 0.35"/>
    </g>
    <g clip-path="url(#pd1b6fef5c2)">
     <use xlink:href="#C2_0_03cd196b09" x="337.801271" y="57.713145" style="fill: #1f77b4; fill-opacity: 0.82; stroke: #ffffff; stroke-opacity: 0.82; stroke-width: 0.35"/>
    </g>
    <g clip-path="url(#pd1b6fef5c2)">
     <use xlink:href="#C2_0_03cd196b09" x="348.590226" y="56.6762" style="fill: #1f77b4; fill-opacity: 0.82; stroke: #ffffff; stroke-opacity: 0.82; stroke-width: 0.35"/>
    </g>
    <g clip-path="url(#pd1b6fef5c2)">
     <use xlink:href="#C2_0_03cd196b09" x="348.699239" y="38.061812" style="fill: #1f77b4; fill-opacity: 0.82; stroke: #ffffff; stroke-opacity: 0.82; stroke-width: 0.35"/>
    </g>
   </g>
   <g id="PathCollection_4">
    <defs>
     <path id="C3_0_03cd196b09" d="M 0 2
C 0.530406 2 1.03916 1.789267 1.414214 1.414214
C 1.789267 1.03916 2 0.530406 2 -0
C 2 -0.530406 1.789267 -1.03916 1.414214 -1.414214
C 1.03916 -1.789267 0.530406 -2 0 -2
C -0.530406 -2 -1.03916 -1.789267 -1.414214 -1.414214
C -1.789267 -1.03916 -2 -0.530406 -2 0
C -2 0.530406 -1.789267 1.03916 -1.414214 1.414214
C -1.03916 1.789267 -0.530406 2 0 2
z
"/>
    </defs>
    <g clip-path="url(#pd1b6fef5c2)">
     <use xlink:href="#C3_0_03cd196b09" x="461.464741" y="122.176295" style="fill: #2ca02c; fill-opacity: 0.82; stroke: #ffffff; stroke-opacity: 0.82; stroke-width: 0.35"/>
    </g>
    <g clip-path="url(#pd1b6fef5c2)">
     <use xlink:href="#C3_0_03cd196b09" x="465.992433" y="122.176295" style="fill: #2ca02c; fill-opacity: 0.82; stroke: #ffffff; stroke-opacity: 0.82; stroke-width: 0.35"/>
    </g>
    <g clip-path="url(#pd1b6fef5c2)">
     <use xlink:href="#C3_0_03cd196b09" x="448.980716" y="117.784637" style="fill: #2ca02c; fill-opacity: 0.82; stroke: #ffffff; stroke-opacity: 0.82; stroke-width: 0.35"/>
    </g>
    <g clip-path="url(#pd1b6fef5c2)">
     <use xlink:href="#C3_0_03cd196b09" x="450.368143" y="60.153985" style="fill: #2ca02c; fill-opacity: 0.82; stroke: #ffffff; stroke-opacity: 0.82; stroke-width: 0.35"/>
    </g>
    <g clip-path="url(#pd1b6fef5c2)">
     <use xlink:href="#C3_0_03cd196b09" x="472.375568" y="58.535268" style="fill: #2ca02c; fill-opacity: 0.82; stroke: #ffffff; stroke-opacity: 0.82; stroke-width: 0.35"/>
    </g>
    <g clip-path="url(#pd1b6fef5c2)">
     <use xlink:href="#C3_0_03cd196b09" x="472.051422" y="136.760953" style="fill: #2ca02c; fill-opacity: 0.82; stroke: #ffffff; stroke-opacity: 0.82; stroke-width: 0.35"/>
    </g>
   </g>
   <g id="text_19">
    <text style="font-weight: 700; font-size: 9.6px; font-family: 'DejaVu Sans'; text-anchor: start; fill: #262626" x="297.66575" y="27.126855" transform="rotate(-0 297.66575 27.126855)">B. R2</text>
   </g>
  </g>
  <g id="axes_3">
   <g id="patch_12">
    <path d="M 38.46575 306.019733
L 256.07952 306.019733
L 256.07952 197.450678
L 38.46575 197.450678
z
" style="fill: #ffffff"/>
   </g>
   <g id="matplotlib.axis_5">
    <g id="xtick_5">
     <g id="text_20">
      <text style="font-size: 8.8px; font-family: 'DejaVu Sans'; fill: #262626" transform="translate(62.750587 340.738968) rotate(-18)">future forecast</text>
     </g>
    </g>
    <g id="xtick_6">
     <g id="text_21">
      <text style="font-size: 8.8px; font-family: 'DejaVu Sans'; fill: #262626" transform="translate(173.058714 339.763401) rotate(-18)">masked recon</text>
     </g>
    </g>
   </g>
   <g id="matplotlib.axis_6">
    <g id="ytick_12">
     <g id="line2d_16">
      <path d="M 38.46575 287.726077
L 256.07952 287.726077
" clip-path="url(#pa0372321d4)" style="fill: none; stroke: #cccccc; stroke-width: 0.8; stroke-linecap: round"/>
     </g>
     <g id="text_22">
      <text style="font-size: 8.8px; font-family: 'DejaVu Sans'; text-anchor: end; fill: #262626" x="30.16575" y="291.06939" transform="rotate(-0 30.16575 291.06939)">10</text>
     </g>
    </g>
    <g id="ytick_13">
     <g id="line2d_17">
      <path d="M 38.46575 268.320436
L 256.07952 268.320436
" clip-path="url(#pa0372321d4)" style="fill: none; stroke: #cccccc; stroke-width: 0.8; stroke-linecap: round"/>
     </g>
     <g id="text_23">
      <text style="font-size: 8.8px; font-family: 'DejaVu Sans'; text-anchor: end; fill: #262626" x="30.16575" y="271.663749" transform="rotate(-0 30.16575 271.663749)">20</text>
     </g>
    </g>
    <g id="ytick_14">
     <g id="line2d_18">
      <path d="M 38.46575 248.914795
L 256.07952 248.914795
" clip-path="url(#pa0372321d4)" style="fill: none; stroke: #cccccc; stroke-width: 0.8; stroke-linecap: round"/>
     </g>
     <g id="text_24">
      <text style="font-size: 8.8px; font-family: 'DejaVu Sans'; text-anchor: end; fill: #262626" x="30.16575" y="252.258108" transform="rotate(-0 30.16575 252.258108)">30</text>
     </g>
    </g>
    <g id="ytick_15">
     <g id="line2d_19">
      <path d="M 38.46575 229.509154
L 256.07952 229.509154
" clip-path="url(#pa0372321d4)" style="fill: none; stroke: #cccccc; stroke-width: 0.8; stroke-linecap: round"/>
     </g>
     <g id="text_25">
      <text style="font-size: 8.8px; font-family: 'DejaVu Sans'; text-anchor: end; fill: #262626" x="30.16575" y="232.852467" transform="rotate(-0 30.16575 232.852467)">40</text>
     </g>
    </g>
    <g id="ytick_16">
     <g id="line2d_20">
      <path d="M 38.46575 210.103513
L 256.07952 210.103513
" clip-path="url(#pa0372321d4)" style="fill: none; stroke: #cccccc; stroke-width: 0.8; stroke-linecap: round"/>
     </g>
     <g id="text_26">
      <text style="font-size: 8.8px; font-family: 'DejaVu Sans'; text-anchor: end; fill: #262626" x="30.16575" y="213.446826" transform="rotate(-0 30.16575 213.446826)">50</text>
     </g>
    </g>
    <g id="text_27">
     <text style="font-size: 9.6px; font-family: 'DejaVu Sans'; text-anchor: middle; fill: #262626" x="12.97125" y="251.735205" transform="rotate(-90 12.97125 251.735205)">lower is better</text>
    </g>
   </g>
   <g id="line2d_21">
    <g clip-path="url(#pa0372321d4)">
     <use xlink:href="#mc85e5eab77" x="92.869192" y="252.851774" style="fill: #111827; stroke: #111827; stroke-width: 1.62"/>
     <use xlink:href="#mc85e5eab77" x="201.676077" y="219.166101" style="fill: #111827; stroke: #111827; stroke-width: 1.62"/>
    </g>
   </g>
   <g id="patch_13">
    <path d="M 38.46575 306.019733
L 38.46575 197.450678
" style="fill: none; stroke: #cccccc; stroke-linejoin: miter; stroke-linecap: square"/>
   </g>
   <g id="patch_14">
    <path d="M 256.07952 306.019733
L 256.07952 197.450678
" style="fill: none; stroke: #cccccc; stroke-linejoin: miter; stroke-linecap: square"/>
   </g>
   <g id="patch_15">
    <path d="M 38.46575 306.019733
L 256.07952 306.019733
" style="fill: none; stroke: #cccccc; stroke-linejoin: miter; stroke-linecap: square"/>
   </g>
   <g id="patch_16">
    <path d="M 38.46575 197.450678
L 256.07952 197.450678
" style="fill: none; stroke: #cccccc; stroke-linejoin: miter; stroke-linecap: square"/>
   </g>
   <g id="PathCollection_5">
    <defs>
     <path id="C4_0_03cd196b09" d="M 0 2
C 0.530406 2 1.03916 1.789267 1.414214 1.414214
C 1.789267 1.03916 2 0.530406 2 -0
C 2 -0.530406 1.789267 -1.03916 1.414214 -1.414214
C 1.03916 -1.789267 0.530406 -2 0 -2
C -0.530406 -2 -1.03916 -1.789267 -1.414214 -1.414214
C -1.789267 -1.03916 -2 -0.530406 -2 0
C -2 0.530406 -1.789267 1.03916 -1.414214 1.414214
C -1.03916 1.789267 -0.530406 2 0 2
z
"/>
    </defs>
    <g clip-path="url(#pa0372321d4)">
     <use xlink:href="#C4_0_03cd196b09" x="83.402328" y="217.856624" style="fill: #1f77b4; fill-opacity: 0.82; stroke: #ffffff; stroke-opacity: 0.82; stroke-width: 0.35"/>
    </g>
    <g clip-path="url(#pa0372321d4)">
     <use xlink:href="#C4_0_03cd196b09" x="103.873866" y="217.856624" style="fill: #1f77b4; fill-opacity: 0.82; stroke: #ffffff; stroke-opacity: 0.82; stroke-width: 0.35"/>
    </g>
    <g clip-path="url(#pa0372321d4)">
     <use xlink:href="#C4_0_03cd196b09" x="78.291121" y="224.269677" style="fill: #1f77b4; fill-opacity: 0.82; stroke: #ffffff; stroke-opacity: 0.82; stroke-width: 0.35"/>
    </g>
    <g clip-path="url(#pa0372321d4)">
     <use xlink:href="#C4_0_03cd196b09" x="97.292043" y="281.43387" style="fill: #1f77b4; fill-opacity: 0.82; stroke: #ffffff; stroke-opacity: 0.82; stroke-width: 0.35"/>
    </g>
    <g clip-path="url(#pa0372321d4)">
     <use xlink:href="#C4_0_03cd196b09" x="108.997386" y="282.470792" style="fill: #1f77b4; fill-opacity: 0.82; stroke: #ffffff; stroke-opacity: 0.82; stroke-width: 0.35"/>
    </g>
    <g clip-path="url(#pa0372321d4)">
     <use xlink:href="#C4_0_03cd196b09" x="85.453517" y="301.084776" style="fill: #1f77b4; fill-opacity: 0.82; stroke: #ffffff; stroke-opacity: 0.82; stroke-width: 0.35"/>
    </g>
   </g>
   <g id="PathCollection_6">
    <defs>
     <path id="C5_0_03cd196b09" d="M 0 2
C 0.530406 2 1.03916 1.789267 1.414214 1.414214
C 1.789267 1.03916 2 0.530406 2 -0
C 2 -0.530406 1.789267 -1.03916 1.414214 -1.414214
C 1.03916 -1.789267 0.530406 -2 0 -2
C -0.530406 -2 -1.03916 -1.789267 -1.414214 -1.414214
C -1.789267 -1.03916 -2 -0.530406 -2 0
C -2 0.530406 -1.789267 1.03916 -1.414214 1.414214
C -1.03916 1.789267 -0.530406 2 0 2
z
"/>
    </defs>
    <g clip-path="url(#pa0372321d4)">
     <use xlink:href="#C5_0_03cd196b09" x="217.901285" y="216.970275" style="fill: #2ca02c; fill-opacity: 0.82; stroke: #ffffff; stroke-opacity: 0.82; stroke-width: 0.35"/>
    </g>
    <g clip-path="url(#pa0372321d4)">
     <use xlink:href="#C5_0_03cd196b09" x="210.891232" y="216.970275" style="fill: #2ca02c; fill-opacity: 0.82; stroke: #ffffff; stroke-opacity: 0.82; stroke-width: 0.35"/>
    </g>
    <g clip-path="url(#pa0372321d4)">
     <use xlink:href="#C5_0_03cd196b09" x="218.966727" y="221.361927" style="fill: #2ca02c; fill-opacity: 0.82; stroke: #ffffff; stroke-opacity: 0.82; stroke-width: 0.35"/>
    </g>
    <g clip-path="url(#pa0372321d4)">
     <use xlink:href="#C5_0_03cd196b09" x="205.425598" y="278.992507" style="fill: #2ca02c; fill-opacity: 0.82; stroke: #ffffff; stroke-opacity: 0.82; stroke-width: 0.35"/>
    </g>
    <g clip-path="url(#pa0372321d4)">
     <use xlink:href="#C5_0_03cd196b09" x="200.468946" y="280.611221" style="fill: #2ca02c; fill-opacity: 0.82; stroke: #ffffff; stroke-opacity: 0.82; stroke-width: 0.35"/>
    </g>
    <g clip-path="url(#pa0372321d4)">
     <use xlink:href="#C5_0_03cd196b09" x="202.804012" y="202.385635" style="fill: #2ca02c; fill-opacity: 0.82; stroke: #ffffff; stroke-opacity: 0.82; stroke-width: 0.35"/>
    </g>
   </g>
   <g id="text_28">
    <text style="font-weight: 700; font-size: 9.6px; font-family: 'DejaVu Sans'; text-anchor: start; fill: #262626" x="38.46575" y="191.450678" transform="rotate(-0 38.46575 191.450678)">C. test MSE</text>
   </g>
  </g>
  <g id="axes_4">
   <g id="patch_17">
    <path d="M 297.66575 306.019733
L 515.27952 306.019733
L 515.27952 197.450678
L 297.66575 197.450678
z
" style="fill: #ffffff"/>
   </g>
   <g id="matplotlib.axis_7">
    <g id="xtick_7">
     <g id="text_29">
      <text style="font-size: 8.8px; font-family: 'DejaVu Sans'; fill: #262626" transform="translate(321.950587 340.738968) rotate(-18)">future forecast</text>
     </g>
    </g>
    <g id="xtick_8">
     <g id="text_30">
      <text style="font-size: 8.8px; font-family: 'DejaVu Sans'; fill: #262626" transform="translate(432.258714 339.763401) rotate(-18)">masked recon</text>
     </g>
    </g>
   </g>
   <g id="matplotlib.axis_8">
    <g id="ytick_17">
     <g id="line2d_22">
      <path d="M 297.66575 305.951596
L 515.27952 305.951596
" clip-path="url(#pdeb0aceb11)" style="fill: none; stroke: #cccccc; stroke-width: 0.8; stroke-linecap: round"/>
     </g>
     <g id="text_31">
      <text style="font-size: 8.8px; font-family: 'DejaVu Sans'; text-anchor: end; fill: #262626" x="289.36575" y="309.294908" transform="rotate(-0 289.36575 309.294908)">0</text>
     </g>
    </g>
    <g id="ytick_18">
     <g id="line2d_23">
      <path d="M 297.66575 284.114079
L 515.27952 284.114079
" clip-path="url(#pdeb0aceb11)" style="fill: none; stroke: #cccccc; stroke-width: 0.8; stroke-linecap: round"/>
     </g>
     <g id="text_32">
      <text style="font-size: 8.8px; font-family: 'DejaVu Sans'; text-anchor: end; fill: #262626" x="289.36575" y="287.457392" transform="rotate(-0 289.36575 287.457392)">10</text>
     </g>
    </g>
    <g id="ytick_19">
     <g id="line2d_24">
      <path d="M 297.66575 262.276563
L 515.27952 262.276563
" clip-path="url(#pdeb0aceb11)" style="fill: none; stroke: #cccccc; stroke-width: 0.8; stroke-linecap: round"/>
     </g>
     <g id="text_33">
      <text style="font-size: 8.8px; font-family: 'DejaVu Sans'; text-anchor: end; fill: #262626" x="289.36575" y="265.619876" transform="rotate(-0 289.36575 265.619876)">20</text>
     </g>
    </g>
    <g id="ytick_20">
     <g id="line2d_25">
      <path d="M 297.66575 240.439047
L 515.27952 240.439047
" clip-path="url(#pdeb0aceb11)" style="fill: none; stroke: #cccccc; stroke-width: 0.8; stroke-linecap: round"/>
     </g>
     <g id="text_34">
      <text style="font-size: 8.8px; font-family: 'DejaVu Sans'; text-anchor: end; fill: #262626" x="289.36575" y="243.782359" transform="rotate(-0 289.36575 243.782359)">30</text>
     </g>
    </g>
    <g id="ytick_21">
     <g id="line2d_26">
      <path d="M 297.66575 218.60153
L 515.27952 218.60153
" clip-path="url(#pdeb0aceb11)" style="fill: none; stroke: #cccccc; stroke-width: 0.8; stroke-linecap: round"/>
     </g>
     <g id="text_35">
      <text style="font-size: 8.8px; font-family: 'DejaVu Sans'; text-anchor: end; fill: #262626" x="289.36575" y="221.944843" transform="rotate(-0 289.36575 221.944843)">40</text>
     </g>
    </g>
    <g id="text_36">
     <text style="font-size: 9.6px; font-family: 'DejaVu Sans'; text-anchor: middle; fill: #262626" x="272.17125" y="251.735205" transform="rotate(-90 272.17125 251.735205)">lower is better</text>
    </g>
   </g>
   <g id="line2d_27">
    <g clip-path="url(#pdeb0aceb11)">
     <use xlink:href="#mc85e5eab77" x="352.069192" y="258.450967" style="fill: #111827; stroke: #111827; stroke-width: 1.62"/>
     <use xlink:href="#mc85e5eab77" x="460.876078" y="219.447356" style="fill: #111827; stroke: #111827; stroke-width: 1.62"/>
    </g>
   </g>
   <g id="patch_18">
    <path d="M 297.66575 306.019733
L 297.66575 197.450678
" style="fill: none; stroke: #cccccc; stroke-linejoin: miter; stroke-linecap: square"/>
   </g>
   <g id="patch_19">
    <path d="M 515.27952 306.019733
L 515.27952 197.450678
" style="fill: none; stroke: #cccccc; stroke-linejoin: miter; stroke-linecap: square"/>
   </g>
   <g id="patch_20">
    <path d="M 297.66575 306.019733
L 515.27952 306.019733
" style="fill: none; stroke: #cccccc; stroke-linejoin: miter; stroke-linecap: square"/>
   </g>
   <g id="patch_21">
    <path d="M 297.66575 197.450678
L 515.27952 197.450678
" style="fill: none; stroke: #cccccc; stroke-linejoin: miter; stroke-linecap: square"/>
   </g>
   <g id="PathCollection_7">
    <defs>
     <path id="C6_0_03cd196b09" d="M 0 2
C 0.530406 2 1.03916 1.789267 1.414214 1.414214
C 1.789267 1.03916 2 0.530406 2 -0
C 2 -0.530406 1.789267 -1.03916 1.414214 -1.414214
C 1.03916 -1.789267 0.530406 -2 0 -2
C -0.530406 -2 -1.03916 -1.789267 -1.414214 -1.414214
C -1.789267 -1.03916 -2 -0.530406 -2 0
C -2 0.530406 -1.789267 1.03916 -1.414214 1.414214
C -1.03916 1.789267 -0.530406 2 0 2
z
"/>
    </defs>
    <g clip-path="url(#pdeb0aceb11)">
     <use xlink:href="#C6_0_03cd196b09" x="342.934851" y="219.135557" style="fill: #1f77b4; fill-opacity: 0.82; stroke: #ffffff; stroke-opacity: 0.82; stroke-width: 0.35"/>
    </g>
    <g clip-path="url(#pdeb0aceb11)">
     <use xlink:href="#C6_0_03cd196b09" x="365.02508" y="219.135557" style="fill: #1f77b4; fill-opacity: 0.82; stroke: #ffffff; stroke-opacity: 0.82; stroke-width: 0.35"/>
    </g>
    <g clip-path="url(#pdeb0aceb11)">
     <use xlink:href="#C6_0_03cd196b09" x="368.23646" y="224.103419" style="fill: #1f77b4; fill-opacity: 0.82; stroke: #ffffff; stroke-opacity: 0.82; stroke-width: 0.35"/>
    </g>
    <g clip-path="url(#pdeb0aceb11)">
     <use xlink:href="#C6_0_03cd196b09" x="350.656498" y="292.798516" style="fill: #1f77b4; fill-opacity: 0.82; stroke: #ffffff; stroke-opacity: 0.82; stroke-width: 0.35"/>
    </g>
    <g clip-path="url(#pdeb0aceb11)">
     <use xlink:href="#C6_0_03cd196b09" x="345.767009" y="293.49965" style="fill: #1f77b4; fill-opacity: 0.82; stroke: #ffffff; stroke-opacity: 0.82; stroke-width: 0.35"/>
    </g>
    <g clip-path="url(#pdeb0aceb11)">
     <use xlink:href="#C6_0_03cd196b09" x="349.323225" y="301.084776" style="fill: #1f77b4; fill-opacity: 0.82; stroke: #ffffff; stroke-opacity: 0.82; stroke-width: 0.35"/>
    </g>
   </g>
   <g id="PathCollection_8">
    <defs>
     <path id="C7_0_03cd196b09" d="M 0 2
C 0.530406 2 1.03916 1.789267 1.414214 1.414214
C 1.789267 1.03916 2 0.530406 2 -0
C 2 -0.530406 1.789267 -1.03916 1.414214 -1.414214
C 1.03916 -1.789267 0.530406 -2 0 -2
C -0.530406 -2 -1.03916 -1.789267 -1.414214 -1.414214
C -1.789267 -1.03916 -2 -0.530406 -2 0
C -2 0.530406 -1.789267 1.03916 -1.414214 1.414214
C -1.03916 1.789267 -0.530406 2 0 2
z
"/>
    </defs>
    <g clip-path="url(#pdeb0aceb11)">
     <use xlink:href="#C7_0_03cd196b09" x="477.848625" y="218.857531" style="fill: #2ca02c; fill-opacity: 0.82; stroke: #ffffff; stroke-opacity: 0.82; stroke-width: 0.35"/>
    </g>
    <g clip-path="url(#pdeb0aceb11)">
     <use xlink:href="#C7_0_03cd196b09" x="449.164546" y="218.857531" style="fill: #2ca02c; fill-opacity: 0.82; stroke: #ffffff; stroke-opacity: 0.82; stroke-width: 0.35"/>
    </g>
    <g clip-path="url(#pdeb0aceb11)">
     <use xlink:href="#C7_0_03cd196b09" x="449.248657" y="220.037181" style="fill: #2ca02c; fill-opacity: 0.82; stroke: #ffffff; stroke-opacity: 0.82; stroke-width: 0.35"/>
    </g>
    <g clip-path="url(#pdeb0aceb11)">
     <use xlink:href="#C7_0_03cd196b09" x="447.177882" y="287.935928" style="fill: #2ca02c; fill-opacity: 0.82; stroke: #ffffff; stroke-opacity: 0.82; stroke-width: 0.35"/>
    </g>
    <g clip-path="url(#pdeb0aceb11)">
     <use xlink:href="#C7_0_03cd196b09" x="461.271253" y="292.024311" style="fill: #2ca02c; fill-opacity: 0.82; stroke: #ffffff; stroke-opacity: 0.82; stroke-width: 0.35"/>
    </g>
    <g clip-path="url(#pdeb0aceb11)">
     <use xlink:href="#C7_0_03cd196b09" x="470.355544" y="202.385635" style="fill: #2ca02c; fill-opacity: 0.82; stroke: #ffffff; stroke-opacity: 0.82; stroke-width: 0.35"/>
    </g>
   </g>
   <g id="text_37">
    <text style="font-weight: 700; font-size: 9.6px; font-family: 'DejaVu Sans'; text-anchor: start; fill: #262626" x="297.66575" y="191.450678" transform="rotate(-0 297.66575 191.450678)">D. best validation MSE</text>
   </g>
  </g>
  <g id="text_38">
   <text style="font-weight: 700; font-size: 11px; font-family: 'DejaVu Sans'; text-anchor: start; fill: #262626" x="10.24776" y="11.238281" transform="rotate(-0 10.24776 11.238281)">EEG v1 benchmark overview from cached task_results.csv</text>
  </g>
 </g>
 <defs>
  <clipPath id="p857c3846f0">
   <rect x="38.46575" y="33.126855" width="217.61377" height="108.569055"/>
  </clipPath>
  <clipPath id="pd1b6fef5c2">
   <rect x="297.66575" y="33.126855" width="217.61377" height="108.569055"/>
  </clipPath>
  <clipPath id="pa0372321d4">
   <rect x="38.46575" y="197.450678" width="217.61377" height="108.569055"/>
  </clipPath>
  <clipPath id="pdeb0aceb11">
   <rect x="297.66575" y="197.450678" width="217.61377" height="108.569055"/>
  </clipPath>
 </defs>
</svg>
