<?xml version="1.0" encoding="utf-8" standalone="no"?>
<!DOCTYPE svg PUBLIC "-//W3C//DTD SVG 1.1//EN"
  "http://www.w3.org/Graphics/SVG/1.1/DTD/svg11.dtd">
<svg xmlns:xlink="http://www.w3.org/1999/xlink" width="518.15952pt" height="237.35952pt" viewBox="0 0 518.15952 237.35952" xmlns="http://www.w3.org/2000/svg" version="1.1">
 <metadata>
  <rdf:RDF xmlns:dc="http://purl.org/dc/elements/1.1/" xmlns:cc="http://creativecommons.org/ns#" xmlns:rdf="http://www.w3.org/1999/02/22-rdf-syntax-ns#">
   <cc:Work>
    <dc:type rdf:resource="http://purl.org/dc/dcmitype/StillImage"/>
    <dc:date>2026-07-08T00:24:36.535849</dc:date>
    <dc:format>image/svg+xml</dc:format>
    <dc:creator>
     <cc:Agent>
      <dc:title>Matplotlib v3.10.8, https://matplotlib.org/</dc:title>
     </cc:Agent>
    </dc:creator>
   </cc:Work>
  </rdf:RDF>
 </metadata>
 <defs>
  <style type="text/css">*{stroke-linejoin: round; stroke-linecap: butt}</style>
 </defs>
 <g id="figure_1">
  <g id="patch_1">
   <path d="M 0 237.35952
L 518.15952 237.35952
L 518.15952 0
L 0 0
z
" style="fill: #ffffff"/>
  </g>
  <g id="axes_1">
   <g id="patch_2">
    <path d="M 32.98775 204.37177
L 235.265976 204.37177
L 235.265976 32.906855
L 32.98775 32.906855
z
" style="fill: #ffffff"/>
   </g>
   <g id="matplotlib.axis_1">
    <g id="xtick_1">
     <g id="text_1">
      <text style="font-size: 8.8px; font-family: 'DejaVu Sans'; text-anchor: middle; fill: #262626" x="66.700788" y="219.358395" transform="rotate(-0 66.700788 219.358395)">passed</text>
     </g>
    </g>
    <g id="xtick_2">
     <g id="text_2">
      <text style="font-size: 8.8px; font-family: 'DejaVu Sans'; text-anchor: middle; fill: #262626" x="134.126863" y="219.358395" transform="rotate(-0 134.126863 219.358395)">failed</text>
     </g>
    </g>
    <g id="xtick_3">
     <g id="text_3">
      <text style="font-size: 8.8px; font-family: 'DejaVu Sans'; text-anchor: middle; fill: #262626" x="201.552939" y="219.358395" transform="rotate(-0 201.552939 219.358395)">unknown</text>
     </g>
    </g>
    <g id="text_4">
     <text style="font-size: 9.6px; font-family: 'DejaVu Sans'; text-anchor: middle; fill: #262626" x="134.126863" y="232.48302" transform="rotate(-0 134.126863 232.48302)">status</text>
    </g>
   </g>
   <g id="matplotlib.axis_2">
    <g id="ytick_1">
     <g id="text_5">
      <text style="font-size: 8.8px; font-family: 'DejaVu Sans'; fill: #262626" transform="translate(22.857625 78.778403) rotate(-90)">leakage</text>
     </g>
    </g>
    <g id="ytick_2">
     <g id="text_6">
      <text style="font-size: 8.8px; font-family: 'DejaVu Sans'; fill: #262626" transform="translate(22.857625 127.869687) rotate(-90)">eval</text>
     </g>
    </g>
    <g id="ytick_3">
     <g id="text_7">
      <text style="font-size: 8.8px; font-family: 'DejaVu Sans'; fill: #262626" transform="translate(22.857625 213.791034) rotate(-90)">paper mode gate</text>
     </g>
    </g>
    <g id="text_8">
     <text style="font-size: 9.6px; font-family: 'DejaVu Sans'; text-anchor: middle; fill: #262626" x="10.1745" y="118.639313" transform="rotate(-90 10.1745 118.639313)">audit type</text>
    </g>
   </g>
   <g id="QuadMesh_1">
    <path d="M 32.98775 32.906855
L 100.413825 32.906855
L 100.413825 90.061827
L 32.98775 90.061827
L 32.98775 32.906855
" clip-path="url(#pa6b3855c65)" style="fill: #37a055; stroke: #ffffff; stroke-width: 0.75"/>
    <path d="M 100.413825 32.906855
L 167.839901 32.906855
L 167.839901 90.061827
L 100.413825 90.061827
L 100.413825 32.906855
" clip-path="url(#pa6b3855c65)" style="fill: #f7fcf5; stroke: #ffffff; stroke-width: 0.75"/>
    <path d="M 167.839901 32.906855
L 235.265976 32.906855
L 235.265976 90.061827
L 167.839901 90.061827
L 167.839901 32.906855
" clip-path="url(#pa6b3855c65)" style="fill: #f7fcf5; stroke: #ffffff; stroke-width: 0.75"/>
    <path d="M 32.98775 90.061827
L 100.413825 90.061827
L 100.413825 147.216798
L 32.98775 147.216798
L 32.98775 90.061827
" clip-path="url(#pa6b3855c65)" style="fill: #00441b; stroke: #ffffff; stroke-width: 0.75"/>
    <path d="M 100.413825 90.061827
L 167.839901 90.061827
L 167.839901 147.216798
L 100.413825 147.216798
L 100.413825 90.061827
" clip-path="url(#pa6b3855c65)" style="fill: #f7fcf5; stroke: #ffffff; stroke-width: 0.75"/>
    <path d="M 167.839901 90.061827
L 235.265976 90.061827
L 235.265976 147.216798
L 167.839901 147.216798
L 167.839901 90.061827
" clip-path="url(#pa6b3855c65)" style="fill: #f7fcf5; stroke: #ffffff; stroke-width: 0.75"/>
    <path d="M 32.98775 147.216798
L 100.413825 147.216798
L 100.413825 204.37177
L 32.98775 204.37177
L 32.98775 147.216798
" clip-path="url(#pa6b3855c65)" style="fill: #66bd6f; stroke: #ffffff; stroke-width: 0.75"/>
    <path d="M 100.413825 147.216798
L 167.839901 147.216798
L 167.839901 204.37177
L 100.413825 204.37177
L 100.413825 147.216798
" clip-path="url(#pa6b3855c65)" style="fill: #f7fcf5; stroke: #ffffff; stroke-width: 0.75"/>
    <path d="M 167.839901 147.216798
L 235.265976 147.216798
L 235.265976 204.37177
L 167.839901 204.37177
L 167.839901 147.216798
" clip-path="url(#pa6b3855c65)" style="fill: #f7fcf5; stroke: #ffffff; stroke-width: 0.75"/>
   </g>
   <g id="text_9">
    <text style="font-size: 9.6px; font-family: 'DejaVu Sans'; text-anchor: middle; fill: #ffffff" x="66.700788" y="64.133341" transform="rotate(-0 66.700788 64.133341)">10</text>
   </g>
   <g id="text_10">
    <text style="font-size: 9.6px; font-family: 'DejaVu Sans'; text-anchor: middle; fill: #262626" x="134.126863" y="64.133341" transform="rotate(-0 134.126863 64.133341)">0</text>
   </g>
   <g id="text_11">
    <text style="font-size: 9.6px; font-family: 'DejaVu Sans'; text-anchor: middle; fill: #262626" x="201.552939" y="64.133341" transform="rotate(-0 201.552939 64.133341)">0</text>
   </g>
   <g id="text_12">
    <text style="font-size: 9.6px; font-family: 'DejaVu Sans'; text-anchor: middle; fill: #ffffff" x="66.700788" y="121.288313" transform="rotate(-0 66.700788 121.288313)">15</text>
   </g>
   <g id="text_13">
    <text style="font-size: 9.6px; font-family: 'DejaVu Sans'; text-anchor: middle; fill: #262626" x="134.126863" y="121.288313" transform="rotate(-0 134.126863 121.288313)">0</text>
   </g>
   <g id="text_14">
    <text style="font-size: 9.6px; font-family: 'DejaVu Sans'; text-anchor: middle; fill: #262626" x="201.552939" y="121.288313" transform="rotate(-0 201.552939 121.288313)">0</text>
   </g>
   <g id="text_15">
    <text style="font-size: 9.6px; font-family: 'DejaVu Sans'; text-anchor: middle; fill: #ffffff" x="66.700788" y="178.443284" transform="rotate(-0 66.700788 178.443284)">8</text>
   </g>
   <g id="text_16">
    <text style="font-size: 9.6px; font-family: 'DejaVu Sans'; text-anchor: middle; fill: #262626" x="134.126863" y="178.443284" transform="rotate(-0 134.126863 178.443284)">0</text>
   </g>
   <g id="text_17">
    <text style="font-size: 9.6px; font-family: 'DejaVu Sans'; text-anchor: middle; fill: #262626" x="201.552939" y="178.443284" transform="rotate(-0 201.552939 178.443284)">0</text>
   </g>
   <g id="text_18">
    <text style="font-weight: 700; font-size: 9.6px; font-family: 'DejaVu Sans'; text-anchor: start; fill: #262626" x="32.98775" y="26.906855" transform="rotate(-0 32.98775 26.906855)">A. audit status counts</text>
   </g>
  </g>
  <g id="axes_2">
   <g id="patch_3">
    <path d="M 346.714331 204.37177
L 515.27952 204.37177
L 515.27952 32.906855
L 346.714331 32.906855
z
" style="fill: #ffffff"/>
   </g>
   <g id="matplotlib.axis_3">
    <g id="xtick_4">
     <g id="text_19">
      <text style="font-size: 8.8px; font-family: 'DejaVu Sans'; text-anchor: middle; fill: #262626" x="430.996926" y="219.358395" transform="rotate(-0 430.996926 219.358395)">count</text>
     </g>
    </g>
   </g>
   <g id="matplotlib.axis_4">
    <g id="ytick_4">
     <g id="text_20">
      <text style="font-size: 8.8px; font-family: 'DejaVu Sans'; text-anchor: end; fill: #262626" x="338.414331" y="44.860934" transform="rotate(-0 338.414331 44.860934)">evidence bundles</text>
     </g>
    </g>
    <g id="ytick_5">
     <g id="text_21">
      <text style="font-size: 8.8px; font-family: 'DejaVu Sans'; text-anchor: end; fill: #262626" x="338.414331" y="63.912591" transform="rotate(-0 338.414331 63.912591)">task results CSV</text>
     </g>
    </g>
    <g id="ytick_6">
     <g id="text_22">
      <text style="font-size: 8.8px; font-family: 'DejaVu Sans'; text-anchor: end; fill: #262626" x="338.414331" y="82.964248" transform="rotate(-0 338.414331 82.964248)">baseline ranking CSV</text>
     </g>
    </g>
    <g id="ytick_7">
     <g id="text_23">
      <text style="font-size: 8.8px; font-family: 'DejaVu Sans'; text-anchor: end; fill: #262626" x="338.414331" y="102.015905" transform="rotate(-0 338.414331 102.015905)">metrics CSV</text>
     </g>
    </g>
    <g id="ytick_8">
     <g id="text_24">
      <text style="font-size: 8.8px; font-family: 'DejaVu Sans'; text-anchor: end; fill: #262626" x="338.414331" y="121.067563" transform="rotate(-0 338.414331 121.067563)">metric summary JSON</text>
     </g>
    </g>
    <g id="ytick_9">
     <g id="text_25">
      <text style="font-size: 8.8px; font-family: 'DejaVu Sans'; text-anchor: end; fill: #262626" x="338.414331" y="140.11922" transform="rotate(-0 338.414331 140.11922)">leakage reports</text>
     </g>
    </g>
    <g id="ytick_10">
     <g id="text_26">
      <text style="font-size: 8.8px; font-family: 'DejaVu Sans'; text-anchor: end; fill: #262626" x="338.414331" y="159.170877" transform="rotate(-0 338.414331 159.170877)">eval audits</text>
     </g>
    </g>
    <g id="ytick_11">
     <g id="text_27">
      <text style="font-size: 8.8px; font-family: 'DejaVu Sans'; text-anchor: end; fill: #262626" x="338.414331" y="178.222534" transform="rotate(-0 338.414331 178.222534)">paper gates</text>
     </g>
    </g>
    <g id="ytick_12">
     <g id="text_28">
      <text style="font-size: 8.8px; font-family: 'DejaVu Sans'; text-anchor: end; fill: #262626" x="338.414331" y="197.274191" transform="rotate(-0 338.414331 197.274191)">tensor arrays found</text>
     </g>
    </g>
   </g>
   <g id="QuadMesh_2">
    <path d="M 346.714331 32.906855
L 515.27952 32.906855
L 515.27952 51.958512
L 346.714331 51.958512
L 346.714331 32.906855
" clip-path="url(#pe2f5071d1c)" style="fill: #08306b; stroke: #ffffff; stroke-width: 0.75"/>
    <path d="M 346.714331 51.958512
L 515.27952 51.958512
L 515.27952 71.010169
L 346.714331 71.010169
L 346.714331 51.958512
" clip-path="url(#pe2f5071d1c)" style="fill: #c8dcf0; stroke: #ffffff; stroke-width: 0.75"/>
    <path d="M 346.714331 71.010169
L 515.27952 71.010169
L 515.27952 90.061827
L 346.714331 90.061827
L 346.714331 71.010169
" clip-path="url(#pe2f5071d1c)" style="fill: #b3d3e8; stroke: #ffffff; stroke-width: 0.75"/>
    <path d="M 346.714331 90.061827
L 515.27952 90.061827
L 515.27952 109.113484
L 346.714331 109.113484
L 346.714331 90.061827
" clip-path="url(#pe2f5071d1c)" style="fill: #a8cee4; stroke: #ffffff; stroke-width: 0.75"/>
    <path d="M 346.714331 109.113484
L 515.27952 109.113484
L 515.27952 128.165141
L 346.714331 128.165141
L 346.714331 109.113484
" clip-path="url(#pe2f5071d1c)" style="fill: #c8dcf0; stroke: #ffffff; stroke-width: 0.75"/>
    <path d="M 346.714331 128.165141
L 515.27952 128.165141
L 515.27952 147.216798
L 346.714331 147.216798
L 346.714331 128.165141
" clip-path="url(#pe2f5071d1c)" style="fill: #a8cee4; stroke: #ffffff; stroke-width: 0.75"/>
    <path d="M 346.714331 147.216798
L 515.27952 147.216798
L 515.27952 166.268456
L 346.714331 166.268456
L 346.714331 147.216798
" clip-path="url(#pe2f5071d1c)" style="fill: #65aad4; stroke: #ffffff; stroke-width: 0.75"/>
    <path d="M 346.714331 166.268456
L 515.27952 166.268456
L 515.27952 185.320113
L 346.714331 185.320113
L 346.714331 166.268456
" clip-path="url(#pe2f5071d1c)" style="fill: #bed8ec; stroke: #ffffff; stroke-width: 0.75"/>
    <path d="M 346.714331 185.320113
L 515.27952 185.320113
L 515.27952 204.37177
L 346.714331 204.37177
L 346.714331 185.320113
" clip-path="url(#pe2f5071d1c)" style="fill: #f7fbff; stroke: #ffffff; stroke-width: 0.75"/>
   </g>
   <g id="text_29">
    <text style="font-size: 9.6px; font-family: 'DejaVu Sans'; text-anchor: middle; fill: #ffffff" x="430.996926" y="45.081684" transform="rotate(-0 430.996926 45.081684)">29</text>
   </g>
   <g id="text_30">
    <text style="font-size: 9.6px; font-family: 'DejaVu Sans'; text-anchor: middle; fill: #262626" x="430.996926" y="64.133341" transform="rotate(-0 430.996926 64.133341)">7</text>
   </g>
   <g id="text_31">
    <text style="font-size: 9.6px; font-family: 'DejaVu Sans'; text-anchor: middle; fill: #262626" x="430.996926" y="83.184998" transform="rotate(-0 430.996926 83.184998)">9</text>
   </g>
   <g id="text_32">
    <text style="font-size: 9.6px; font-family: 'DejaVu Sans'; text-anchor: middle; fill: #262626" x="430.996926" y="102.236655" transform="rotate(-0 430.996926 102.236655)">10</text>
   </g>
   <g id="text_33">
    <text style="font-size: 9.6px; font-family: 'DejaVu Sans'; text-anchor: middle; fill: #262626" x="430.996926" y="121.288313" transform="rotate(-0 430.996926 121.288313)">7</text>
   </g>
   <g id="text_34">
    <text style="font-size: 9.6px; font-family: 'DejaVu Sans'; text-anchor: middle; fill: #262626" x="430.996926" y="140.33997" transform="rotate(-0 430.996926 140.33997)">10</text>
   </g>
   <g id="text_35">
    <text style="font-size: 9.6px; font-family: 'DejaVu Sans'; text-anchor: middle; fill: #ffffff" x="430.996926" y="159.391627" transform="rotate(-0 430.996926 159.391627)">15</text>
   </g>
   <g id="text_36">
    <text style="font-size: 9.6px; font-family: 'DejaVu Sans'; text-anchor: middle; fill: #262626" x="430.996926" y="178.443284" transform="rotate(-0 430.996926 178.443284)">8</text>
   </g>
   <g id="text_37">
    <text style="font-size: 9.6px; font-family: 'DejaVu Sans'; text-anchor: middle; fill: #262626" x="430.996926" y="197.494941" transform="rotate(-0 430.996926 197.494941)">0</text>
   </g>
   <g id="text_38">
    <text style="font-weight: 700; font-size: 9.6px; font-family: 'DejaVu Sans'; text-anchor: start; fill: #262626" x="346.714331" y="26.906855" transform="rotate(-0 346.714331 26.906855)">B. artifact inventory</text>
   </g>
  </g>
  <g id="text_39">
   <text style="font-weight: 700; font-size: 11px; font-family: 'DejaVu Sans'; text-anchor: start; fill: #262626" x="10.24776" y="11.238281" transform="rotate(-0 10.24776 11.238281)">EEG v1 evidence checks from cached audits and inventory</text>
  </g>
 </g>
 <defs>
  <clipPath id="pa6b3855c65">
   <rect x="32.98775" y="32.906855" width="202.278226" height="171.464915"/>
  </clipPath>
  <clipPath id="pe2f5071d1c">
   <rect x="346.714331" y="32.906855" width="168.565189" height="171.464915"/>
  </clipPath>
 </defs>
</svg>
